<svg width="356" height="356" viewBox="0 0 356 356" fill="none" xmlns="http://www.w3.org/2000/svg">
<path d="M136.381 320.883L136.428 321.049H72.6867C71.6952 303.616 92.2599 308.331 92.2599 308.331C92.2599 308.331 89.1669 297.53 98.6176 289.654C99.8735 288.608 101.19 287.813 102.528 287.211C101.818 284.973 101.078 282.727 100.246 280.566C99.2797 280.757 90.5238 282.349 86.6312 278.125C82.5083 273.652 79.0223 274.863 79.0223 274.863C79.0223 274.863 85.4309 272.592 90.8444 274.769C95.6693 276.709 99.4298 279.78 100.19 280.425C99.5428 278.756 98.8401 277.14 98.0507 275.618C94.8566 269.458 87.8231 265.696 82.6632 263.662C81.7141 263.646 76.8281 263.481 71.8878 261.741C66.384 259.803 63.0691 253.867 63.0691 253.867C63.0691 253.867 64.8889 257.077 70.9387 256.439C75.4975 255.957 79.9385 260.303 81.8511 262.475C83.0113 262.9 84.297 263.417 85.6313 264.036C88.4355 265.338 91.8269 267.273 94.6658 269.945C93.9416 268.487 92.1547 264.568 91.4125 260.029C90.4712 254.271 94.0869 248.513 94.0869 248.513C94.0869 248.513 92.1433 251.65 95.6077 256.65C98.7546 261.192 95.6657 268.953 95.0731 270.337C96.5245 271.767 97.8109 273.398 98.769 275.246C100.568 278.716 101.923 282.646 103.172 286.567C103.42 284.946 104.012 282.133 105.365 279.453C107.43 275.364 112.99 273.787 112.99 273.787C112.99 273.787 109.982 274.662 110.218 279.671C110.346 282.374 108.238 284.564 106.269 286.012C113.808 284.477 120.932 287.817 120.932 287.817C121.62 283.686 125.581 277.638 131.843 275.013L134.565 302.092C133.679 308.861 134.938 315.28 135.537 317.784C133.691 318.176 128.739 318.62 128.399 319.363C127.99 320.258 128.016 320.845 128.016 320.845C128.016 320.845 132.468 320.902 136.381 320.883ZM144.885 274.971L144.244 285.543C146.453 284.129 149.121 282.996 152.338 282.258C151.07 279.299 148.812 276.522 144.885 274.971Z" fill="#7D8E9E"/>
<path d="M136.758 314.658C136.503 314.863 136.528 317.087 136.221 317.547C136.169 317.625 135.911 317.703 135.536 317.783C134.937 315.282 133.676 308.859 134.563 302.085L135.384 310.259H136.661L137.109 314.528C137.11 314.528 137.111 314.527 137.112 314.527C136.946 314.564 136.823 314.607 136.758 314.658ZM302.515 271.554C297.956 271.073 293.515 275.419 291.602 277.591C290.442 278.015 289.156 278.533 287.822 279.152C285.018 280.453 281.626 282.389 278.787 285.06C279.512 283.602 281.299 279.683 282.041 275.145C282.982 269.386 279.366 263.629 279.366 263.629C279.366 263.629 281.31 266.766 277.845 271.766C274.699 276.308 277.787 284.068 278.38 285.453C276.929 286.882 275.642 288.513 274.684 290.361C272.885 293.831 271.53 297.762 270.281 301.683C270.033 300.061 269.441 297.248 268.088 294.569C266.023 290.48 260.463 288.903 260.463 288.903C260.463 288.903 263.472 289.778 263.235 294.787C263.076 298.136 266.349 300.7 268.538 302.035C261.655 300.993 255.008 302.516 255.008 302.516C255.008 302.516 259.515 286.776 245.743 275.3C235.555 266.809 222.653 269.415 216.624 271.346C216.581 273.824 216.567 275.411 216.567 275.411L226.941 307.034H225.568L226.348 309.039C226.409 308.966 226.445 308.9 226.442 308.845C226.424 308.37 226.89 308.415 227.04 308.456C227.19 308.497 229.764 315.231 229.764 315.231L228.599 315.661C228.599 315.661 227.945 314.192 227.669 313.812C227.394 313.432 226.763 313.303 226.33 314.258C225.897 315.213 225.889 316.71 225.706 316.946C225.524 317.181 215.871 320.888 215.871 320.888C215.871 320.888 215.711 320.393 215.823 319.966C215.935 319.54 222.495 315.24 222.442 314.73C222.388 314.22 221.349 311.586 221.319 311.251C221.29 310.915 221.865 310.565 221.865 310.565C221.865 310.565 221.96 310.76 222.216 310.861L220.236 307.035H219.476L205.549 281.05L200.892 255.805C200.308 255.445 199.703 255.11 199.084 254.792L199.33 310.262H198.027V313.432C198.03 313.426 198.037 313.42 198.04 313.414C198.187 312.962 198.608 313.165 198.735 313.255C198.861 313.346 198.945 320.555 198.945 320.555H197.703C197.703 320.555 197.598 318.95 197.472 318.498C197.345 318.046 196.798 317.707 196.061 318.453C195.324 319.199 194.797 320.6 194.545 320.758C194.292 320.917 183.953 321.052 183.953 321.052H283.531C284.218 308.966 277.796 304.187 270.873 302.496C271.599 300.202 272.355 297.899 273.208 295.684C274.174 295.875 282.93 297.466 286.823 293.243C290.945 288.77 294.431 289.981 294.431 289.981C294.431 289.981 288.023 287.71 282.609 289.887C277.784 291.827 274.024 294.898 273.263 295.543C273.911 293.874 274.614 292.258 275.403 290.736C278.597 284.576 285.631 280.814 290.791 278.78C291.74 278.764 296.626 278.599 301.566 276.859C307.07 274.921 310.385 268.985 310.385 268.985C310.385 268.985 308.564 272.193 302.515 271.554ZM192.249 317.547C192.376 317.05 192.313 314.219 192.401 313.894C192.489 313.569 193.15 313.44 193.15 313.44C193.15 313.44 193.162 313.591 193.286 313.747L192.683 310.26H191.712L183.911 252.4C182.757 252.583 181.579 252.842 180.374 253.193C161.676 258.629 165.533 281.421 165.533 281.421C165.38 281.41 165.233 281.406 165.081 281.397V310.26H163.119C163.036 311.843 162.952 313.49 162.896 314.668C162.894 314.665 162.891 314.661 162.888 314.659C163.144 314.865 163.118 317.088 163.425 317.547C163.731 318.007 170.839 318.468 171.248 319.362C171.657 320.257 171.631 320.845 171.631 320.845C171.631 320.845 157.468 321.024 157.468 320.64C157.468 320.257 157.212 313.891 157.289 313.584C157.365 313.277 157.749 312.996 157.749 312.996H158.414C158.414 312.996 158.428 312.998 158.444 313.002C158.443 313.002 158.441 313.001 158.441 313.001L158.024 310.259H156.551L152.959 282.126C149.463 282.859 146.592 284.042 144.244 285.546L142.746 310.259H141.459L141.308 312.996H141.896C141.896 312.996 142.28 313.277 142.356 313.584C142.433 313.89 142.178 320.256 142.178 320.64C142.178 320.809 139.445 320.868 136.381 320.883L136.427 321.049H183.953C183.953 321.049 183.974 320.529 184.227 320.167C184.479 319.807 192.123 318.044 192.249 317.547Z" fill="#AAC0CE"/>
<path d="M176.047 169.752C169.503 172.359 156.004 170.621 156.004 170.621C156.004 170.621 155.798 169.815 155.468 168.506C156.234 169.139 158.765 168.269 159.072 167.553C159.379 166.838 160.223 165.432 160.325 165.432C160.427 165.432 165.08 164.358 165.08 164.358L163.022 159.36C163.022 159.36 160.185 160.856 158.843 160.626C157.501 160.396 157.027 159.884 156.286 159.705C155.544 159.527 155.11 159.041 154.854 159.36C154.598 159.68 155.135 160.677 155.519 160.958C155.902 161.239 156.183 161.648 156.106 161.879C156.055 162.032 155.016 162.856 154.299 163.79C152.833 157.801 150.957 149.801 150.981 148.163C150.983 148.03 150.988 147.901 150.994 147.773C149.458 146.996 146.688 145.544 144.586 144.437C144.797 144.239 145.17 143.915 145.689 143.561C146.532 142.986 155.42 140.072 155.42 140.072C155.883 139.788 156.209 139.637 156.209 139.637C156.209 139.637 157.129 142.091 159.583 141.989C162.038 141.887 163.623 139.637 163.623 139.637C167.048 139.586 172.008 141.426 172.621 142.5C173.235 143.575 178.348 153.851 178.501 155.414C178.654 156.976 174.462 162.8 174.36 163.106C174.258 163.411 176.047 169.752 176.047 169.752ZM135.384 310.259H142.747L147.189 236.938L156.551 310.259H165.08V212.678L125.666 213.542L135.384 310.259Z" fill="#1D5C87"/>
<path d="M161.595 200.952L165.403 201.58L164.023 203.972C164.023 203.972 163.915 203.979 163.816 204.003C163.756 204.018 163.7 204.039 163.672 204.067C163.595 204.144 163.077 204.067 162.406 203.856C162.322 203.83 162.244 203.801 162.172 203.772C161.663 203.564 161.428 203.299 161.428 203.299L161.333 203.3C161.333 203.3 161.077 203.293 160.869 203.325L161.595 200.952ZM125.019 133.347L125.31 134.65L126.297 139.074L126.881 142.976C135.154 149.441 141.789 142.96 141.789 142.96C140.92 142.039 140.511 138.869 140.511 138.869C140.511 138.869 141.432 137.233 142.505 134.37C143.197 132.525 143.358 129.047 143.385 126.806L142.889 127.148C142.889 127.148 143.043 125.92 142.276 123.773C141.509 121.625 138.748 119.248 136.677 119.133C134.606 119.018 133.302 119.133 133.302 119.133L134.874 120.245C134.874 120.245 129.697 119.938 127.933 120.935C126.169 121.932 125.709 123.236 125.575 125.882C125.44 128.528 126.054 130.906 126.054 130.906H125.096C125.096 130.906 124.827 127.493 124.252 126.879C123.677 126.265 122.607 125.502 122.181 127.953C121.756 130.403 125.019 133.347 125.019 133.347ZM158.44 313.001C158.5 313.015 158.643 313.084 158.643 313.406C158.643 313.815 159.155 314.377 160.305 314.377C161.456 314.377 162.632 314.454 162.887 314.658C162.89 314.661 162.893 314.664 162.896 314.667C162.951 313.49 163.036 311.843 163.119 310.259H158.024L158.44 313.001ZM153.627 165.201C153.525 166.557 154.703 167.872 155.469 168.505C156.234 169.138 158.766 168.269 159.073 167.553C159.379 166.837 160.223 165.431 160.325 165.431C160.428 165.431 165.08 164.358 165.08 164.358L163.023 159.36C163.023 159.36 160.185 160.855 158.843 160.625C157.501 160.395 157.028 159.884 156.286 159.705C155.545 159.526 155.111 159.04 154.855 159.36C154.599 159.679 155.136 160.677 155.519 160.958C155.902 161.239 156.183 161.648 156.107 161.878C156.03 162.108 153.729 163.846 153.627 165.201ZM153.013 136.363C154.322 139.242 156.132 139.431 156.132 139.431L156.183 139.648C156.198 139.641 156.209 139.636 156.209 139.636C156.209 139.636 157.13 142.09 159.584 141.988C162.038 141.886 163.623 139.636 163.623 139.636C163.623 139.636 166.631 137.516 167.074 134.65C167.153 134.144 168.43 133.347 168.813 131.787C169.196 130.227 168.685 129.231 168.302 129.231C168.193 129.231 168.093 129.263 168.005 129.308C167.97 130.212 167.948 130.849 167.948 130.849L166.875 131.534C166.875 131.534 166.722 128.824 166.415 127.648C166.108 126.472 163.807 124.886 162.682 125.909C161.557 126.932 159.422 127.852 159.422 127.852L160.073 124.458C160.043 124.611 159.571 126.8 157.006 127.392C154.348 128.006 152.098 132.199 152.404 133.272C152.711 134.346 152.711 134.346 152.711 134.346C152.711 134.346 151.484 134.192 151.638 133.272L150.662 131.301L150.385 132.837C150.385 132.837 150.255 132.491 150.058 131.977C149.862 132.376 149.783 132.955 150.176 133.73C151.019 135.392 152.715 135.708 153.013 136.363ZM137.109 314.528C137.602 314.42 138.478 314.377 139.34 314.377C140.491 314.377 141.002 313.815 141.002 313.406C141.002 312.997 141.233 312.997 141.233 312.997H141.308L141.46 310.259H136.661L137.109 314.528ZM222.016 216.928C221.552 215.699 224.161 210.094 224.161 210.094L222.033 203.539L218.609 212.185C218.609 212.185 213.633 213.753 212.373 213.836C211.113 213.918 211.488 214.494 212.006 214.973C212.523 215.451 214.05 215.925 214.868 215.56C215.685 215.196 215.846 216.245 215.846 216.245C215.846 216.245 211.129 220.989 211.211 222.42C211.291 223.795 214.282 226.125 215.622 226.405C216.963 226.685 220.035 223.875 220.954 222.293C221.873 220.71 222.48 218.157 222.016 216.928ZM211.324 140.685C211.357 140.657 211.39 140.627 211.422 140.597C211.437 140.584 211.451 140.571 211.466 140.558C211.513 140.514 211.56 140.47 211.607 140.424C211.614 140.417 211.622 140.409 211.629 140.402C211.669 140.363 211.709 140.324 211.749 140.283C211.766 140.266 211.782 140.249 211.799 140.231C211.83 140.2 211.86 140.167 211.891 140.135C211.91 140.116 211.928 140.096 211.946 140.077C211.976 140.045 212.005 140.013 212.034 139.981C212.052 139.961 212.071 139.941 212.089 139.921C212.119 139.886 212.149 139.852 212.179 139.818C212.196 139.799 212.212 139.781 212.229 139.761C212.266 139.718 212.303 139.674 212.34 139.63C212.348 139.62 212.357 139.61 212.365 139.6C212.41 139.546 212.453 139.492 212.497 139.437C212.511 139.419 212.525 139.401 212.538 139.384C212.568 139.346 212.598 139.308 212.627 139.27C212.644 139.249 212.66 139.227 212.676 139.206C212.702 139.171 212.729 139.136 212.754 139.101C212.77 139.079 212.787 139.057 212.803 139.035C212.828 139 212.854 138.964 212.879 138.928C212.894 138.907 212.909 138.886 212.923 138.865C212.95 138.825 212.978 138.785 213.004 138.745C213.015 138.729 213.026 138.712 213.037 138.696C213.074 138.641 213.11 138.585 213.144 138.53C213.152 138.518 213.16 138.505 213.168 138.492C213.194 138.45 213.22 138.407 213.245 138.365C213.257 138.345 213.268 138.326 213.279 138.306C213.3 138.271 213.321 138.236 213.34 138.201C213.351 138.18 213.362 138.159 213.374 138.139C213.392 138.105 213.41 138.071 213.428 138.038C213.438 138.019 213.449 137.998 213.458 137.979C213.476 137.944 213.493 137.909 213.509 137.875C213.517 137.858 213.525 137.842 213.533 137.825C213.682 137.503 213.769 137.216 213.769 136.993C213.769 136.692 213.759 136.429 213.727 136.205C213.679 135.868 213.583 135.616 213.402 135.444C213.371 135.415 213.339 135.389 213.304 135.365C213.234 135.316 213.153 135.277 213.061 135.246C212.923 135.2 212.759 135.173 212.565 135.165C212.563 135.165 212.562 135.165 212.561 135.165C212.556 135.165 212.553 135.165 212.549 135.165C212.498 135.163 212.449 135.162 212.401 135.162C212.357 135.161 212.314 135.162 212.272 135.163C212.241 135.163 212.209 135.163 212.18 135.164C212.165 135.187 212.148 135.211 212.133 135.234L212.132 135.235C210.761 137.336 207.902 139.623 207.703 139.78C207.696 139.786 207.691 139.79 207.691 139.79C207.691 139.79 207.695 139.785 207.698 139.781C207.7 139.779 207.702 139.776 207.704 139.773C207.708 139.768 207.713 139.76 207.719 139.752C207.722 139.748 207.725 139.742 207.728 139.737C207.735 139.727 207.742 139.714 207.75 139.701C207.753 139.694 207.757 139.688 207.761 139.682C207.772 139.66 207.785 139.636 207.797 139.609C207.809 139.584 207.819 139.557 207.831 139.527C207.843 139.494 207.855 139.457 207.865 139.418C207.869 139.406 207.872 139.392 207.875 139.379C207.882 139.35 207.889 139.319 207.895 139.287C207.898 139.27 207.901 139.253 207.904 139.236C207.909 139.202 207.913 139.166 207.916 139.128C207.918 139.111 207.92 139.094 207.921 139.076C207.925 139.02 207.926 138.961 207.925 138.898C207.925 138.891 207.923 138.884 207.923 138.876C207.92 138.788 207.911 138.693 207.895 138.592C207.884 138.523 207.87 138.452 207.852 138.378C207.85 138.372 207.85 138.366 207.848 138.36C207.829 138.282 207.807 138.202 207.779 138.117C207.753 138.04 207.725 137.961 207.691 137.879C207.658 137.798 207.611 137.716 207.55 137.634C207.541 137.621 207.529 137.608 207.519 137.595C207.497 137.567 207.475 137.54 207.451 137.512C207.437 137.495 207.42 137.479 207.405 137.463C207.382 137.438 207.359 137.414 207.333 137.388C207.315 137.371 207.295 137.354 207.277 137.336C207.252 137.312 207.227 137.289 207.2 137.265C207.179 137.247 207.156 137.229 207.135 137.211C207.107 137.188 207.08 137.165 207.051 137.142C207.027 137.123 207.002 137.105 206.978 137.086C206.949 137.064 206.919 137.042 206.888 137.019C206.862 137.001 206.835 136.982 206.809 136.964C206.777 136.942 206.746 136.92 206.714 136.897C206.687 136.879 206.658 136.86 206.63 136.842C206.597 136.82 206.563 136.798 206.53 136.777C206.501 136.758 206.47 136.74 206.44 136.721C206.406 136.699 206.371 136.679 206.336 136.658C206.305 136.639 206.273 136.621 206.242 136.602C206.207 136.581 206.172 136.561 206.135 136.54C206.103 136.521 206.07 136.503 206.038 136.485C206.001 136.464 205.965 136.444 205.928 136.424C205.895 136.406 205.862 136.388 205.828 136.371C205.791 136.35 205.753 136.33 205.715 136.311C205.681 136.293 205.648 136.275 205.614 136.258C205.576 136.239 205.539 136.22 205.501 136.201C205.467 136.183 205.432 136.166 205.397 136.149C205.36 136.13 205.321 136.111 205.284 136.092C205.25 136.076 205.215 136.059 205.181 136.043C205.142 136.024 205.105 136.006 205.066 135.988C205.032 135.972 204.998 135.956 204.964 135.94C204.926 135.922 204.888 135.905 204.85 135.887C204.816 135.872 204.782 135.856 204.748 135.841C204.711 135.824 204.674 135.807 204.637 135.791C204.603 135.776 204.569 135.761 204.535 135.746C204.499 135.73 204.463 135.715 204.427 135.698C204.394 135.684 204.361 135.67 204.329 135.656C204.293 135.64 204.258 135.625 204.223 135.61C204.191 135.597 204.159 135.584 204.128 135.57C204.093 135.556 204.059 135.542 204.025 135.527C203.995 135.515 203.965 135.502 203.935 135.49C203.902 135.476 203.868 135.462 203.835 135.449C203.807 135.438 203.778 135.426 203.751 135.415C203.719 135.402 203.689 135.39 203.658 135.378C203.631 135.367 203.603 135.356 203.577 135.346C203.547 135.334 203.518 135.322 203.489 135.311C203.464 135.301 203.44 135.292 203.417 135.283C203.388 135.271 203.361 135.261 203.334 135.25C203.312 135.242 203.289 135.233 203.268 135.225C203.242 135.215 203.217 135.206 203.193 135.196C203.174 135.189 203.155 135.182 203.137 135.174C203.112 135.165 203.089 135.157 203.065 135.148C203.051 135.142 203.034 135.136 203.02 135.131C202.999 135.123 202.981 135.116 202.961 135.109C202.948 135.105 202.933 135.099 202.921 135.094C202.905 135.088 202.891 135.084 202.877 135.078C202.865 135.074 202.851 135.069 202.841 135.065C202.824 135.059 202.811 135.054 202.798 135.049C202.793 135.048 202.788 135.046 202.784 135.045C202.775 135.042 202.771 135.04 202.764 135.038C202.747 135.032 202.735 135.027 202.735 135.027C202.782 135.093 202.829 135.162 202.876 135.233C202.888 135.251 202.899 135.268 202.911 135.286C203.004 135.43 203.096 135.581 203.186 135.734C203.197 135.753 203.208 135.772 203.219 135.791C203.296 135.926 203.371 136.059 203.441 136.187C203.467 136.235 203.492 136.281 203.516 136.327C203.521 136.335 203.525 136.343 203.53 136.351C203.553 136.395 203.576 136.438 203.598 136.48C203.603 136.488 203.607 136.497 203.611 136.506C203.632 136.546 203.653 136.586 203.672 136.623C203.676 136.631 203.68 136.638 203.684 136.646C203.703 136.684 203.722 136.72 203.739 136.754C203.741 136.758 203.743 136.762 203.745 136.766C203.761 136.798 203.775 136.827 203.789 136.854C203.791 136.86 203.794 136.865 203.797 136.87C203.811 136.899 203.824 136.924 203.836 136.948C203.838 136.951 203.839 136.954 203.841 136.957C203.852 136.98 203.861 136.999 203.869 137.016C203.871 137.019 203.872 137.022 203.874 137.025C203.881 137.04 203.887 137.052 203.891 137.061C203.891 137.062 203.891 137.062 203.892 137.064C203.896 137.071 203.898 137.076 203.898 137.076C203.898 137.076 203.896 137.073 203.891 137.068C203.891 137.067 203.891 137.067 203.891 137.067C203.821 136.981 203.217 136.276 201.541 135.474C201.46 135.435 201.376 135.396 201.29 135.357C201.208 135.32 201.124 135.282 201.038 135.245C201.037 135.245 201.037 135.244 201.036 135.244C200.777 135.132 200.497 135.019 200.194 134.907C200.192 134.906 200.19 134.905 200.188 134.904C200.119 134.878 200.05 134.853 199.978 134.828C199.85 134.782 199.718 134.736 199.582 134.691C199.56 134.683 199.538 134.676 199.516 134.669C199.375 134.622 199.231 134.575 199.081 134.529C198.986 134.499 198.894 134.469 198.804 134.438C195.328 133.269 195.482 131.43 195.482 131.428C195.444 131.549 195.409 131.673 195.375 131.798C195.365 131.837 195.355 131.876 195.345 131.915C195.323 132.003 195.301 132.092 195.28 132.182C195.269 132.227 195.259 132.272 195.249 132.316C195.229 132.407 195.21 132.499 195.192 132.592C195.184 132.632 195.176 132.671 195.168 132.711C195.119 132.975 195.076 133.243 195.039 133.513C195.033 133.556 195.028 133.598 195.022 133.641C195.01 133.736 194.998 133.83 194.987 133.925C194.982 133.972 194.976 134.02 194.972 134.068C194.961 134.163 194.952 134.258 194.944 134.353C194.94 134.395 194.936 134.436 194.932 134.478C194.921 134.613 194.91 134.747 194.9 134.881C194.891 135.018 194.883 135.155 194.876 135.29C194.876 135.293 194.876 135.295 194.875 135.298C194.868 135.432 194.863 135.563 194.858 135.695C194.857 135.714 194.857 135.734 194.856 135.753C194.853 135.863 194.849 135.973 194.847 136.082C194.846 136.11 194.845 136.138 194.845 136.165C194.843 136.267 194.841 136.367 194.84 136.466C194.84 136.494 194.839 136.523 194.839 136.552C194.838 136.675 194.838 136.796 194.838 136.916C194.839 137.064 194.841 137.208 194.843 137.35C194.845 137.439 194.847 137.527 194.848 137.613C194.848 137.614 194.848 137.615 194.848 137.617C194.851 137.702 194.853 137.786 194.856 137.868C194.861 138.035 194.868 138.195 194.874 138.346C194.874 138.347 194.874 138.348 194.874 138.348C194.874 138.351 194.874 138.352 194.874 138.354C194.878 138.442 194.883 138.525 194.887 138.607C194.888 138.631 194.889 138.653 194.891 138.676C194.894 138.735 194.897 138.794 194.901 138.849C194.902 138.868 194.903 138.886 194.905 138.904C194.908 138.963 194.912 139.022 194.916 139.077C194.917 139.086 194.917 139.095 194.918 139.104C194.922 139.167 194.927 139.228 194.931 139.284C194.936 139.356 194.942 139.422 194.947 139.482C194.954 139.572 194.961 139.647 194.966 139.706C194.966 139.709 194.967 139.712 194.967 139.714C194.969 139.738 194.971 139.757 194.973 139.776C194.973 139.784 194.975 139.793 194.975 139.799C194.976 139.812 194.978 139.824 194.979 139.833C194.979 139.838 194.98 139.843 194.98 139.848C194.981 139.854 194.981 139.859 194.982 139.862C194.982 139.866 194.983 139.871 194.983 139.871C195.026 140.023 195.07 140.17 195.115 140.315C195.132 140.373 195.15 140.431 195.168 140.487C195.193 140.563 195.217 140.638 195.242 140.712C195.299 140.885 195.356 141.053 195.415 141.213C195.415 141.214 195.415 141.215 195.415 141.216C195.451 141.313 195.485 141.407 195.521 141.5C195.521 141.501 195.522 141.501 195.522 141.501C195.581 141.656 195.64 141.804 195.699 141.948C195.7 141.95 195.701 141.952 195.702 141.954C195.761 142.097 195.821 142.234 195.88 142.366C195.88 142.366 195.88 142.366 195.88 142.367C195.931 142.481 195.983 142.591 196.034 142.698C196.034 142.698 196.034 142.698 196.034 142.698C196.088 142.81 196.142 142.918 196.195 143.021C196.248 143.125 196.301 143.223 196.353 143.318C196.414 143.428 196.473 143.531 196.531 143.63C196.729 143.964 196.911 144.232 197.068 144.439C197.077 144.452 197.087 144.465 197.096 144.477C197.119 144.506 197.14 144.533 197.16 144.559C197.177 144.58 197.193 144.6 197.208 144.619C197.223 144.637 197.238 144.655 197.251 144.671C197.281 144.707 197.31 144.74 197.336 144.769C197.389 144.828 197.436 144.888 197.482 144.949C197.491 144.961 197.499 144.973 197.507 144.985C197.583 145.09 197.65 145.198 197.706 145.308C197.706 145.309 197.707 145.309 197.707 145.31C199.062 147.303 198.943 152.668 198.291 155.314C198.071 156.207 197.611 156.841 197.043 157.273C197.195 158.451 197.353 159.529 197.52 160.481C197.633 160.338 197.751 160.195 197.873 160.053C197.874 160.052 197.876 160.05 197.877 160.049C197.997 159.91 198.12 159.772 198.247 159.637C198.254 159.629 198.262 159.621 198.269 159.613C198.391 159.484 198.516 159.355 198.646 159.227C198.663 159.21 198.682 159.193 198.7 159.176C198.821 159.058 198.944 158.94 199.072 158.824C199.105 158.794 199.139 158.765 199.173 158.735C199.289 158.632 199.407 158.528 199.529 158.426C199.583 158.381 199.64 158.336 199.695 158.292C199.801 158.206 199.906 158.119 200.016 158.034C200.103 157.967 200.195 157.902 200.284 157.835C200.368 157.773 200.45 157.71 200.536 157.649C200.716 157.521 200.901 157.395 201.091 157.27C206.945 153.436 201.857 149.882 206.281 145.024C206.405 144.888 206.525 144.75 206.641 144.611C206.78 144.446 206.914 144.28 207.044 144.115C207.048 144.11 207.051 144.106 207.056 144.101C207.066 144.088 207.076 144.076 207.085 144.063C207.122 144.016 207.159 143.97 207.195 143.923C207.248 143.855 207.301 143.787 207.353 143.719C207.408 143.647 207.464 143.576 207.518 143.505C207.521 143.502 207.524 143.498 207.527 143.494C207.529 143.492 207.531 143.489 207.533 143.487C207.684 143.292 207.831 143.102 207.978 142.921C208.124 142.742 208.268 142.572 208.413 142.415C208.416 142.412 208.418 142.41 208.421 142.407C208.485 142.337 208.55 142.271 208.615 142.207C208.624 142.197 208.634 142.187 208.643 142.178C208.665 142.157 208.686 142.137 208.708 142.117C208.724 142.102 208.74 142.087 208.755 142.072C208.782 142.048 208.808 142.026 208.834 142.003C208.846 141.993 208.857 141.983 208.868 141.973C208.896 141.95 208.923 141.928 208.951 141.906C208.962 141.898 208.972 141.888 208.982 141.88C209.009 141.859 209.035 141.84 209.061 141.821C209.074 141.812 209.086 141.802 209.098 141.794C209.126 141.774 209.154 141.755 209.182 141.737C209.194 141.73 209.204 141.721 209.216 141.714C209.243 141.697 209.271 141.681 209.299 141.664C209.311 141.657 209.323 141.649 209.335 141.642C209.357 141.63 209.38 141.619 209.402 141.607C209.42 141.597 209.438 141.587 209.456 141.579C209.475 141.569 209.494 141.562 209.514 141.553C209.535 141.544 209.557 141.533 209.579 141.524C209.599 141.515 209.619 141.509 209.64 141.501C209.662 141.493 209.683 141.484 209.704 141.477C209.725 141.47 209.747 141.465 209.768 141.459C209.789 141.452 209.811 141.445 209.832 141.44C209.851 141.435 209.87 141.432 209.889 141.428C209.914 141.422 209.938 141.416 209.963 141.411C209.981 141.408 209.998 141.407 210.015 141.404C210.042 141.4 210.069 141.396 210.097 141.393H210.097C210.13 141.39 210.165 141.383 210.2 141.376C210.211 141.373 210.223 141.369 210.235 141.366C210.26 141.359 210.284 141.352 210.31 141.343C210.324 141.338 210.338 141.333 210.353 141.328C210.377 141.318 210.402 141.309 210.427 141.297C210.442 141.291 210.457 141.284 210.472 141.277C210.498 141.264 210.524 141.251 210.551 141.237C210.565 141.229 210.58 141.222 210.594 141.214C210.627 141.196 210.66 141.176 210.693 141.156C210.702 141.151 210.711 141.145 210.721 141.14C210.764 141.113 210.807 141.084 210.851 141.054C210.863 141.045 210.876 141.036 210.888 141.027C210.92 141.005 210.953 140.981 210.986 140.956C211.002 140.944 211.019 140.931 211.036 140.919C211.065 140.896 211.095 140.873 211.124 140.849C211.142 140.834 211.159 140.82 211.177 140.805C211.207 140.78 211.236 140.755 211.266 140.73C211.288 140.715 211.306 140.701 211.324 140.685ZM225.568 307.033H220.235L222.217 310.862C222.397 310.932 222.656 310.954 223.023 310.828C223.814 310.557 225.886 309.589 226.349 309.038L225.568 307.033ZM169.554 182.79C168.327 182.637 166.997 180.438 167.355 180.029C167.713 179.62 168.685 177.575 168.327 176.91C167.969 176.245 167.202 176.245 166.333 177.37C165.464 178.495 163.674 179.518 162.344 180.745C161.015 181.972 160.529 184.554 160.529 184.554C144.347 186.164 133.149 179.569 133.149 179.569L122.258 183.71L120.05 184.396C120.05 184.396 125.53 194.294 125.94 194.549C126.349 194.805 160.401 189.897 160.401 189.897C160.401 189.897 165.361 192.606 166.384 193.169C167.406 193.731 171.036 194.192 171.701 193.169C172.366 192.147 174.872 185.704 174.667 184.807C174.463 183.91 170.781 182.943 169.554 182.79ZM193.286 313.749C193.414 313.911 193.663 314.078 194.145 314.089C195.074 314.112 197.785 313.873 198.027 313.437V310.26H192.684L193.286 313.749ZM194.986 139.87C194.984 139.862 194.959 139.758 194.917 139.584C194.939 139.685 194.961 139.782 194.986 139.87Z" fill="#F6E0D5"/>
<path d="M225.701 187.21L221.827 202.911L222.062 203.626H222.062L222.034 203.539L221.97 203.7L219.276 210.5L219.666 209.515L218.834 204.786C217.875 198.855 215.817 185.844 220.513 181.076L225.701 187.21ZM174.679 224.204L179.035 202.424C179.035 202.424 174.679 183.911 174.679 183.398C174.679 183.348 174.725 183.043 174.809 182.535C174.607 183.095 174.395 183.675 174.174 184.269C174.165 184.263 174.153 184.258 174.144 184.252C174.429 184.435 174.624 184.622 174.667 184.807C174.871 185.704 172.366 192.147 171.701 193.169C171.502 193.475 171.034 193.646 170.453 193.724C170.463 193.723 170.474 193.723 170.484 193.721C168.652 198.257 167.129 201.863 167.129 201.863L165.412 201.581L164.559 203.042C164.928 208.621 165.08 212.678 165.08 212.678V281.396C165.233 281.405 165.379 281.409 165.533 281.419C165.533 281.419 161.675 258.627 180.373 253.191C181.578 252.841 182.757 252.581 183.91 252.399L180.109 224.204H174.679V224.204ZM144.244 285.546C145.417 284.795 145.417 284.792 144.244 285.543L144.884 274.971C148.812 276.522 151.069 279.299 152.338 282.258C152.124 282.307 152.533 282.216 152.958 282.127L147.189 236.938L144.244 285.546ZM313.413 201.658C267.355 183.086 243.954 156.343 259.554 125.514C277.374 90.2995 236.525 51.2273 204.211 41.9415C139.981 23.4843 86.0941 43.7985 83.8659 76.8562C80.3548 128.935 109.866 149.658 71.2371 169.343C23.9323 193.451 9.57879 218.373 15.1501 261.088C20.9792 305.777 72.6861 321.049 72.6861 321.049C71.6946 303.616 92.2593 308.331 92.2593 308.331C92.2593 308.331 89.1663 297.53 98.6171 289.654C99.8729 288.608 101.189 287.813 102.528 287.211C101.818 284.973 101.077 282.727 100.245 280.566C99.2791 280.757 90.5232 282.349 86.6306 278.125C82.5077 273.652 79.0218 274.863 79.0218 274.863C79.0218 274.863 85.4303 272.592 90.8438 274.769C95.6687 276.709 99.4292 279.78 100.19 280.425C99.5422 278.756 98.8395 277.14 98.0501 275.618C94.856 269.458 87.8225 265.696 82.6626 263.662C81.7135 263.646 76.8276 263.481 71.8872 261.741C66.3834 259.803 63.0685 253.867 63.0685 253.867C63.0685 253.867 64.8883 257.077 70.9381 256.439C75.4969 255.957 79.938 260.303 81.8505 262.475C83.0107 262.9 84.2964 263.417 85.6307 264.036C88.4349 265.338 91.8263 267.273 94.6652 269.945C93.941 268.487 92.1541 264.568 91.4119 260.029C90.4706 254.271 94.0863 248.513 94.0863 248.513C94.0863 248.513 92.1427 251.65 95.6071 256.65C98.754 261.192 95.6651 268.953 95.0725 270.337C96.5239 271.767 97.8103 273.398 98.7684 275.246C100.567 278.715 101.922 282.646 103.172 286.567C103.419 284.946 104.011 282.133 105.364 279.453C107.429 275.364 112.99 273.787 112.99 273.787C112.99 273.787 109.981 274.662 110.218 279.671C110.346 282.374 108.238 284.564 106.268 286.012C113.808 284.477 120.931 287.817 120.931 287.817C121.619 283.686 125.581 277.638 131.843 275.013L125.666 213.543L125.407 213.548C125.714 202.505 120.051 184.4 120.05 184.397C120.05 184.397 120.093 184.475 120.167 184.608C120.093 184.475 120.05 184.397 120.05 184.397L118.679 184.836C118.679 184.836 114.64 175.786 113.054 172.054C111.469 168.321 110.651 156.663 112.185 154.669C113.719 152.675 126.86 142.96 126.86 142.96C126.867 142.966 126.874 142.97 126.882 142.976L126.298 139.074L125.31 134.651C125.31 134.651 123.37 133.552 122.604 133.245C121.837 132.938 120.878 131.443 120.418 130.101C119.958 128.759 118.922 125.921 119.766 123.965C120.61 122.009 119.344 119.631 118.807 118.251C118.27 116.871 118.846 112.997 121.108 111.694C123.37 110.39 125.096 111.042 126.783 109.815C128.471 108.587 130.503 108.818 132.382 109.125C134.261 109.431 136.485 110.237 138.326 109.623C140.167 109.01 143.503 111.234 143.391 113.957C143.279 116.68 143.733 116.756 144.653 118.597C145.574 120.438 143.391 126.803 143.391 126.803L142.89 127.148L143.386 126.806C143.359 129.048 143.198 132.526 142.506 134.37C141.432 137.233 140.512 138.87 140.512 138.87C140.512 138.87 140.921 142.04 141.79 142.96C141.79 142.96 142.997 143.6 144.586 144.436C144.797 144.238 145.17 143.915 145.689 143.561C146.532 142.985 155.42 140.071 155.42 140.071C155.883 139.787 156.209 139.637 156.209 139.637C156.209 139.637 156.198 139.642 156.182 139.65L156.132 139.432C156.132 139.432 154.321 139.243 153.013 136.365C152.714 135.708 151.019 135.393 150.175 133.731C149.782 132.957 149.861 132.377 150.057 131.979C149.618 130.833 148.847 128.854 148.441 128.007C147.853 126.78 147.239 122.791 149.131 121.155C151.023 119.519 152.045 117.423 157.312 117.269C162.578 117.115 165.289 116.605 167.18 115.787C169.072 114.969 168.926 117.474 168.948 118.905C168.97 120.337 168.459 122.229 168.305 123.558C168.202 124.453 168.076 127.447 168.004 129.308C168.092 129.263 168.192 129.231 168.3 129.231C168.684 129.231 169.195 130.228 168.812 131.788C168.428 133.347 167.152 134.145 167.073 134.651C166.63 137.517 163.622 139.636 163.622 139.636C167.048 139.585 172.008 141.426 172.621 142.5C173.234 143.573 178.347 153.851 178.501 155.413C178.654 156.975 174.461 162.799 174.359 163.106C174.257 163.413 176.046 169.753 176.046 169.753C176.046 169.753 176.337 171.114 176.536 172.943C177.991 165.208 179.871 155.93 180.507 155.406C181.062 154.949 185.214 153.609 189.152 152.406C189.155 152.415 189.16 152.422 189.164 152.432C188.519 150.885 187.994 148.887 187.953 146.435C187.843 139.79 191.238 138.238 191.718 131.595C192.734 117.545 209.216 120.251 212.538 123.209C215.86 126.169 222.726 135.582 221.618 141.34C220.511 147.099 221.54 148.887 223.833 153.854C225.29 157.009 226.159 159.875 226.55 162.469C226.549 162.465 226.549 162.462 226.549 162.459C233.121 171.321 238.319 186.361 238.319 186.361L224.544 211.167L224.169 210.028L224.161 210.093C224.161 210.093 221.553 215.699 222.016 216.927C222.416 217.988 222.017 220.031 221.311 221.589C221.335 221.534 221.36 221.48 221.385 221.424C221.386 221.42 221.388 221.416 221.391 221.411C221.435 221.308 221.477 221.203 221.519 221.098C221.519 221.097 221.519 221.096 221.519 221.096C221.758 222.993 221.891 224.204 221.891 224.204H221.251C221.139 226.441 222.131 236.005 218.609 242.461C217.235 244.98 216.767 263.101 216.624 271.345C222.653 269.414 235.555 266.809 245.743 275.298C259.516 286.775 255.008 302.515 255.008 302.515C255.008 302.515 261.655 300.992 268.538 302.034C266.349 300.699 263.076 298.135 263.235 294.785C263.472 289.776 260.463 288.901 260.463 288.901C260.463 288.901 266.023 290.479 268.088 294.568C269.441 297.246 270.033 300.06 270.281 301.681C271.53 297.761 272.885 293.83 274.684 290.36C275.643 288.512 276.929 286.881 278.38 285.451C277.787 284.067 274.699 276.307 277.845 271.764C281.309 266.764 279.366 263.628 279.366 263.628C279.366 263.628 282.983 269.385 282.041 275.143C281.299 279.682 279.512 283.601 278.787 285.059C281.626 282.387 285.018 280.452 287.822 279.15C289.156 278.531 290.442 278.014 291.602 277.589C293.515 275.417 297.956 271.071 302.515 271.553C308.564 272.191 310.384 268.981 310.384 268.981C310.384 268.981 307.069 274.917 301.565 276.856C296.625 278.595 291.739 278.76 290.79 278.776C285.63 280.81 278.597 284.573 275.402 290.732C274.614 292.253 273.91 293.87 273.263 295.539C274.023 294.894 277.784 291.823 282.609 289.883C288.023 287.706 294.431 289.977 294.431 289.977C294.431 289.977 290.945 288.766 286.822 293.239C282.929 297.463 274.173 295.871 273.208 295.681C272.354 297.895 271.598 300.199 270.872 302.492C277.795 304.184 284.218 308.962 283.53 321.048C352.449 312.667 359.47 220.23 313.413 201.658ZM199.084 254.79C199.703 255.108 200.308 255.443 200.892 255.803L199.044 245.788L199.084 254.79Z" fill="#ECECEC"/>
<path d="M170.484 193.722C168.652 198.258 167.13 201.864 167.13 201.864L160.15 200.713L161.127 190.293C162.542 191.066 165.605 192.74 166.384 193.169C167.106 193.566 169.124 193.911 170.484 193.722ZM162.406 203.856C161.735 203.645 161.428 203.299 161.428 203.299L161.332 203.3C161.332 203.3 160.623 203.281 160.604 203.453C160.585 203.626 160.354 204.162 160.335 204.354C160.316 204.546 158.092 203.97 157.363 203.827C156.635 203.683 155.541 204.738 155.484 205.025C155.427 205.313 155.388 205.658 155.58 205.812C155.771 205.965 162.738 208.017 163.051 207.844C163.364 207.672 164.022 203.972 164.022 203.972C164.022 203.972 163.747 203.991 163.67 204.067C163.594 204.144 163.077 204.067 162.406 203.856ZM226.551 162.457C229.288 180.551 208.75 185.407 201.687 182.646C198.613 181.443 190.577 168.729 197.778 160.169C197.601 159.28 197.435 158.24 197.278 157.081C196.152 158.109 194.47 158.201 193.464 157.847C192.044 157.348 191.72 156.399 191.72 156.399C191.72 156.399 190.256 155.066 189.153 152.404C185.216 153.608 181.064 154.947 180.508 155.405C179.873 155.928 177.992 165.207 176.537 172.942C176.339 171.112 176.047 169.752 176.047 169.752C171.897 171.406 164.949 171.312 160.421 171.021L161.158 175.784C161.439 177.514 161.716 179.308 161.985 181.129V181.131C162.097 180.993 162.217 180.863 162.344 180.745C163.673 179.518 165.463 178.495 166.332 177.37C167.201 176.245 167.969 176.245 168.326 176.91C168.684 177.575 167.713 179.62 167.355 180.029C166.997 180.438 168.326 182.637 169.553 182.79C170.535 182.913 173.088 183.557 174.174 184.269C174.395 183.675 174.607 183.096 174.809 182.536C174.725 183.044 174.679 183.349 174.679 183.399C174.679 183.912 179.035 202.425 179.035 202.425L174.679 224.205H212.282C212.24 224.161 212.198 224.116 212.156 224.072C212.14 224.055 212.125 224.038 212.109 224.02C212.081 223.99 212.054 223.959 212.028 223.929C212.012 223.911 211.996 223.893 211.981 223.875C211.949 223.838 211.919 223.802 211.889 223.765C211.881 223.755 211.872 223.745 211.864 223.735C211.827 223.689 211.793 223.645 211.759 223.6C211.747 223.584 211.735 223.568 211.723 223.552C211.7 223.521 211.677 223.489 211.655 223.457C211.643 223.441 211.632 223.425 211.621 223.409C211.594 223.369 211.568 223.329 211.543 223.289C211.539 223.283 211.535 223.277 211.531 223.272C211.504 223.227 211.478 223.183 211.453 223.139C211.445 223.124 211.438 223.111 211.43 223.097C211.413 223.065 211.397 223.032 211.381 223.001C211.375 222.987 211.368 222.973 211.362 222.959C211.342 222.917 211.325 222.876 211.308 222.835C211.308 222.833 211.307 222.831 211.305 222.829C211.289 222.786 211.276 222.744 211.263 222.703C211.259 222.69 211.256 222.678 211.253 222.666C211.244 222.636 211.237 222.605 211.231 222.575C211.229 222.563 211.226 222.551 211.224 222.539C211.217 222.499 211.212 222.46 211.21 222.421C211.204 222.331 211.218 222.229 211.248 222.116C211.293 221.946 211.375 221.751 211.486 221.538C211.523 221.467 211.563 221.394 211.607 221.32C212.731 219.378 215.845 216.246 215.845 216.246C215.845 216.246 215.782 215.836 215.535 215.617C215.461 215.551 215.37 215.504 215.26 215.489C215.223 215.484 215.184 215.483 215.142 215.486C215.06 215.492 214.968 215.515 214.866 215.561C214.847 215.569 214.826 215.575 214.807 215.582C214.732 215.611 214.653 215.634 214.569 215.651C214.549 215.655 214.529 215.659 214.508 215.663C213.663 215.8 212.453 215.389 212.004 214.974C211.972 214.945 211.941 214.915 211.91 214.885C211.909 214.885 211.909 214.885 211.909 214.884C211.826 214.803 211.751 214.719 211.689 214.638C211.674 214.619 211.661 214.6 211.648 214.581C211.637 214.565 211.627 214.549 211.617 214.533C211.604 214.512 211.592 214.491 211.581 214.47C211.421 214.158 211.543 213.891 212.371 213.837C212.456 213.831 212.559 213.818 212.676 213.8C212.775 213.785 212.883 213.766 213 213.742C213.064 213.73 213.131 213.716 213.2 213.701C213.476 213.642 213.789 213.567 214.122 213.483C214.311 213.435 214.507 213.383 214.705 213.33C214.833 213.296 214.961 213.261 215.091 213.226C215.14 213.212 215.189 213.199 215.238 213.185C215.366 213.15 215.494 213.114 215.622 213.077C215.672 213.063 215.723 213.049 215.773 213.035C216.081 212.947 216.383 212.859 216.67 212.775C216.771 212.745 216.87 212.715 216.966 212.687C217.045 212.663 217.122 212.641 217.197 212.618C217.346 212.573 217.488 212.53 217.62 212.49C217.686 212.47 217.75 212.451 217.81 212.432C218.296 212.284 218.607 212.186 218.607 212.186L219.275 210.501L219.665 209.516L218.833 204.787C217.874 198.857 215.816 185.846 220.512 181.077L225.7 187.211L221.825 202.912L224.542 211.168L238.319 186.359C238.321 186.359 233.123 171.32 226.551 162.457ZM221.518 221.098C221.477 221.204 221.434 221.309 221.39 221.412C221.388 221.416 221.387 221.42 221.384 221.425C221.342 221.522 221.299 221.618 221.255 221.712C221.242 221.739 221.229 221.764 221.217 221.791C221.181 221.863 221.147 221.936 221.11 222.005C221.061 222.1 221.01 222.193 220.959 222.282C220.957 222.285 220.955 222.289 220.953 222.292C220.917 222.354 220.877 222.419 220.835 222.484C220.823 222.501 220.811 222.519 220.8 222.537C220.765 222.59 220.727 222.645 220.688 222.7C220.678 222.715 220.668 222.729 220.658 222.743C220.607 222.813 220.555 222.884 220.499 222.956C220.491 222.966 220.482 222.978 220.473 222.989C220.424 223.052 220.373 223.116 220.32 223.18C220.307 223.196 220.294 223.212 220.28 223.228C220.155 223.38 220.019 223.535 219.876 223.689C219.866 223.701 219.854 223.713 219.844 223.725C219.778 223.795 219.712 223.865 219.644 223.936C219.635 223.945 219.627 223.954 219.618 223.964C219.539 224.045 219.46 224.125 219.378 224.206H221.889C221.889 224.206 221.757 222.995 221.518 221.098C221.519 221.097 221.518 221.098 221.518 221.098Z" fill="#112D42"/>
<path d="M198.735 313.253C198.861 313.344 198.945 320.553 198.945 320.553H197.703C197.703 320.553 197.598 318.948 197.472 318.496C197.345 318.044 196.798 317.705 196.061 318.451C195.324 319.197 194.797 320.598 194.545 320.756C194.292 320.914 183.953 321.049 183.953 321.049C183.953 321.049 183.974 320.53 184.227 320.168C184.48 319.806 192.124 318.044 192.25 317.546C192.376 317.049 192.313 314.219 192.401 313.893C192.489 313.568 193.15 313.439 193.15 313.439C193.15 313.439 193.197 314.067 194.145 314.089C195.093 314.112 197.893 313.863 198.041 313.411C198.187 312.959 198.608 313.162 198.735 313.253ZM227.04 308.455C226.89 308.414 226.425 308.369 226.443 308.844C226.461 309.319 223.92 310.522 223.023 310.828C222.126 311.135 221.864 310.563 221.864 310.563C221.864 310.563 221.289 310.913 221.319 311.249C221.349 311.584 222.388 314.218 222.441 314.728C222.495 315.238 215.934 319.538 215.822 319.965C215.711 320.392 215.871 320.886 215.871 320.886C215.871 320.886 225.523 317.18 225.706 316.944C225.888 316.708 225.897 315.211 226.33 314.256C226.763 313.302 227.394 313.43 227.669 313.81C227.944 314.19 228.598 315.659 228.598 315.659L229.764 315.229C229.764 315.231 227.19 308.497 227.04 308.455ZM133.149 179.569C133.149 179.569 144.347 186.164 160.53 184.554C160.53 184.554 160.936 182.401 162.019 181.092C162.008 181.106 161.997 181.118 161.986 181.131V181.129C161.717 179.311 161.441 177.519 161.16 175.792C160.891 174.128 160.617 172.523 160.342 171.015C157.774 170.849 156.005 170.621 156.005 170.621C156.005 170.621 155.798 169.814 155.469 168.505C155.583 168.599 155.737 168.66 155.917 168.693C155.737 168.66 155.583 168.599 155.469 168.505C154.703 167.872 153.525 166.556 153.627 165.201C153.661 164.75 153.94 164.256 154.299 163.789C152.833 157.8 150.957 149.799 150.981 148.162C150.982 148.029 150.988 147.9 150.994 147.772C150.994 147.772 150.993 147.772 150.993 147.772C150.898 147.723 150.798 147.673 150.693 147.62C150.692 147.619 150.691 147.618 150.689 147.618C150.585 147.565 150.477 147.509 150.364 147.452C150.364 147.452 150.364 147.451 150.363 147.451C150.023 147.277 149.649 147.084 149.252 146.879C149.25 146.877 149.248 146.876 149.245 146.875C148.587 146.534 147.868 146.159 147.145 145.781C147.131 145.773 147.117 145.766 147.104 145.759C146.825 145.613 146.546 145.467 146.269 145.322C146.253 145.313 146.235 145.304 146.218 145.295C146.111 145.239 146.006 145.183 145.9 145.128C145.844 145.098 145.789 145.07 145.733 145.04C145.632 144.987 145.531 144.934 145.431 144.881C145.402 144.866 145.373 144.851 145.345 144.836C145.251 144.787 145.158 144.738 145.066 144.689C145.012 144.661 144.957 144.632 144.903 144.604C144.818 144.559 144.733 144.514 144.649 144.47C144.628 144.458 144.606 144.447 144.585 144.436C142.996 143.599 141.789 142.96 141.789 142.96C141.789 142.96 135.142 149.454 126.859 142.96C126.859 142.96 113.719 152.675 112.185 154.669C110.651 156.663 111.469 168.321 113.054 172.054C114.639 175.786 118.678 184.836 118.678 184.836L120.05 184.397L122.258 183.711L133.149 179.569ZM165.08 212.678C165.08 212.678 164.928 208.622 164.559 203.043L164.022 203.972C164.022 203.972 163.364 207.672 163.051 207.844C162.738 208.017 155.771 205.965 155.58 205.811C155.388 205.657 155.426 205.312 155.484 205.025C155.542 204.737 156.635 203.683 157.363 203.826C158.091 203.97 160.315 204.546 160.335 204.354C160.354 204.162 160.585 203.625 160.604 203.452C160.611 203.384 160.729 203.345 160.868 203.324L161.596 200.951L164.05 201.355L160.151 200.712L161.128 190.292C160.684 190.05 160.402 189.896 160.402 189.896C160.402 189.896 126.349 194.804 125.94 194.548C125.531 194.292 120.052 184.397 120.051 184.395C120.051 184.398 125.715 202.502 125.408 213.546L165.08 212.678ZM219.476 307.033H226.941L216.567 275.411C216.567 275.411 216.823 245.737 218.609 242.462C222.131 236.005 221.139 226.441 221.251 224.205H219.379C218.109 225.454 216.498 226.588 215.623 226.405C214.783 226.229 213.296 225.25 212.283 224.205H180.11L191.713 310.26H199.331L199.045 245.788L205.55 281.048L219.476 307.033ZM163.424 317.547C163.117 317.087 163.143 314.863 162.887 314.658C162.631 314.454 161.455 314.377 160.305 314.377C159.154 314.377 158.643 313.815 158.643 313.406C158.643 312.997 158.412 312.997 158.412 312.997H157.748C157.748 312.997 157.365 313.278 157.288 313.585C157.211 313.892 157.466 320.257 157.466 320.641C157.466 321.025 171.63 320.845 171.63 320.845C171.63 320.845 171.655 320.258 171.246 319.363C170.839 318.468 163.731 318.008 163.424 317.547ZM141.896 312.997H141.232C141.232 312.997 141.002 312.997 141.002 313.406C141.002 313.815 140.49 314.377 139.34 314.377C138.189 314.377 137.014 314.454 136.758 314.658C136.502 314.863 136.527 317.087 136.221 317.547C135.914 318.008 128.807 318.468 128.398 319.362C127.989 320.257 128.014 320.845 128.014 320.845C128.014 320.845 142.178 321.024 142.178 320.64C142.178 320.257 142.433 313.891 142.356 313.584C142.28 313.278 141.896 312.997 141.896 312.997Z" fill="#FF8137"/>
<path d="M144.653 118.596C145.574 120.436 143.391 126.802 143.391 126.802L142.89 127.147C142.89 127.147 143.044 125.92 142.276 123.772C141.51 121.625 138.748 119.247 136.677 119.132C134.607 119.017 133.303 119.132 133.303 119.132L134.875 120.244C134.875 120.244 129.698 119.938 127.934 120.935C126.17 121.932 125.71 123.235 125.575 125.882C125.441 128.528 126.055 130.905 126.055 130.905H125.096C125.096 130.905 124.828 127.492 124.253 126.879C123.677 126.265 122.607 125.502 122.182 127.952C121.756 130.402 125.019 133.346 125.019 133.346L125.31 134.649C125.31 134.649 123.37 133.551 122.603 133.244C121.836 132.937 120.877 131.442 120.417 130.1C119.957 128.758 118.922 125.92 119.765 123.964C120.609 122.008 119.344 119.63 118.807 118.25C118.27 116.87 118.845 112.996 121.107 111.693C123.37 110.389 125.096 111.041 126.783 109.814C128.47 108.586 130.503 108.817 132.382 109.123C134.261 109.43 136.485 110.236 138.326 109.622C140.166 109.009 143.503 111.233 143.39 113.956C143.279 116.678 143.733 116.755 144.653 118.596ZM167.181 115.786C165.289 116.604 162.579 117.116 157.313 117.269C152.046 117.422 151.024 119.518 149.132 121.155C147.24 122.791 147.854 126.779 148.441 128.006C149.029 129.234 150.384 132.838 150.384 132.838L150.661 131.302L151.637 133.273C151.484 134.193 152.711 134.346 152.711 134.346C152.711 134.346 152.711 134.346 152.404 133.273C152.097 132.199 154.347 128.006 157.006 127.393C159.571 126.801 160.042 124.612 160.072 124.458L159.422 127.853C159.422 127.853 161.557 126.932 162.682 125.91C163.807 124.887 166.107 126.472 166.414 127.648C166.721 128.824 166.874 131.534 166.874 131.534L167.948 130.85C167.948 130.85 168.152 124.887 168.305 123.558C168.459 122.228 168.97 120.337 168.948 118.905C168.926 117.473 169.073 114.968 167.181 115.786ZM201.686 182.646C198.241 181.298 188.558 165.483 201.094 157.272C206.949 153.437 201.861 149.884 206.284 145.026C207.756 143.409 208.658 141.535 210.103 141.394C211.238 141.283 213.771 138.196 213.771 136.992C213.771 135.787 213.605 135.206 212.567 135.165C212.426 135.16 212.299 135.16 212.181 135.163C210.781 137.359 207.694 139.788 207.694 139.788C207.694 139.788 208.22 139.18 207.694 137.878C207.168 136.577 202.738 135.027 202.738 135.027C203.292 135.802 203.9 137.076 203.9 137.076C203.9 137.076 202.849 135.691 199.083 134.529C195.318 133.366 195.484 131.428 195.484 131.428C194.432 134.806 194.986 139.871 194.986 139.872C195.789 142.724 196.863 144.24 197.339 144.772C197.493 144.945 197.614 145.126 197.711 145.313C199.065 147.306 198.947 152.671 198.295 155.317C197.643 157.963 194.882 158.347 193.463 157.848C192.045 157.349 191.72 156.401 191.72 156.401C191.72 156.401 188.065 153.079 187.954 146.434C187.844 139.789 191.239 138.236 191.72 131.594C192.735 117.544 209.217 120.25 212.539 123.208C215.861 126.167 222.727 135.581 221.62 141.339C220.512 147.098 221.541 148.886 223.834 153.853C235.447 179.003 209.761 185.803 201.686 182.646ZM194.91 139.552C194.933 139.666 194.959 139.773 194.987 139.871C194.986 139.871 194.957 139.752 194.91 139.552Z" fill="#9B9B9B"/>
</svg>
