<svg width="175" height="56" viewBox="0 0 175 56" fill="none" xmlns="http://www.w3.org/2000/svg">
<g filter="url(#filter0_d_20_22)">
<circle cx="28" cy="24" r="24" fill="#FF8137"/>
</g>
<g filter="url(#filter1_d_20_22)">
<g filter="url(#filter2_d_20_22)">
<circle cx="17.5556" cy="37.4445" r="1.55556" fill="white"/>
<circle cx="33.8889" cy="37.4445" r="1.55556" fill="white"/>
<path d="M46 13H41.514L39.4944 20.7662M17.5888 36H35.5327L36.6979 31.5195M36.6979 31.5195H18.486L14 20.7662H39.4944M36.6979 31.5195L39.4944 20.7662" stroke="white"/>
</g>
</g>
<path d="M80.3125 28.6094C80.3125 27.7969 80.2396 27.0365 80.0938 26.3281C79.9479 25.6094 79.7083 24.9844 79.375 24.4531C79.0521 23.9219 78.625 23.5052 78.0938 23.2031C77.5625 22.8906 76.9062 22.7344 76.125 22.7344C75.6875 22.7344 75.276 22.8073 74.8906 22.9531C74.5052 23.099 74.1458 23.2917 73.8125 23.5312C73.4896 23.7708 73.1927 24.0365 72.9219 24.3281C72.6615 24.6198 72.4375 24.9115 72.25 25.2031C72.0625 25.4844 71.9115 25.7552 71.7969 26.0156C71.6927 26.2656 71.6302 26.4688 71.6094 26.625C71.6094 27.2708 71.6146 27.901 71.625 28.5156C71.6458 29.1302 71.6667 29.7292 71.6875 30.3125C71.7083 31.0833 71.7969 31.7969 71.9531 32.4531C72.1198 33.099 72.3594 33.6562 72.6719 34.125C72.9844 34.5938 73.375 34.9635 73.8438 35.2344C74.3229 35.4948 74.8906 35.625 75.5469 35.625C76.3906 35.625 77.1094 35.4167 77.7031 35C78.3073 34.5833 78.8021 34.0417 79.1875 33.375C79.5729 32.7083 79.8542 31.9583 80.0312 31.125C80.2188 30.2917 80.3125 29.4531 80.3125 28.6094ZM81.9531 28.6094C81.9531 29.9427 81.7604 31.1927 81.375 32.3594C80.9896 33.5156 80.4271 34.526 79.6875 35.3906C78.9479 36.2552 78.0417 36.9375 76.9688 37.4375C75.8958 37.9375 74.6667 38.1875 73.2812 38.1875C72.2812 38.1875 71.349 38.0104 70.4844 37.6562C69.6302 37.3125 68.8802 36.8281 68.2344 36.2031C67.599 35.5781 67.0885 34.8385 66.7031 33.9844C66.3281 33.1302 66.1198 32.1927 66.0781 31.1719C66.0573 30.526 66.0417 29.7031 66.0312 28.7031C66.0208 27.6927 66.0156 26.6094 66.0156 25.4531C66.0156 24.5885 66.0156 23.7135 66.0156 22.8281C66.026 21.9427 66.0312 21.1042 66.0312 20.3125C66.0417 19.5104 66.0469 18.7812 66.0469 18.125C66.0573 17.4688 66.0677 16.9323 66.0781 16.5156C65.2135 16.5156 64.5104 16.4792 63.9688 16.4062C63.4271 16.3333 63.1302 16.2865 63.0781 16.2656C62.8802 16.2344 62.7188 16.1406 62.5938 15.9844C62.4688 15.8281 62.4062 15.6562 62.4062 15.4688C62.4062 15.3333 62.4375 15.2135 62.5 15.1094C62.5521 15.0052 62.6198 14.9167 62.7031 14.8438C62.7865 14.7708 62.875 14.7188 62.9688 14.6875C63.0625 14.6458 63.151 14.625 63.2344 14.625C63.2552 14.625 63.276 14.625 63.2969 14.625C63.3177 14.625 63.3385 14.6354 63.3594 14.6562C63.3698 14.6562 63.4479 14.6667 63.5938 14.6875C63.7396 14.7083 63.9375 14.7344 64.1875 14.7656C64.4375 14.7865 64.7292 14.8073 65.0625 14.8281C65.4062 14.849 65.776 14.8594 66.1719 14.8594C66.8177 14.8594 67.526 14.8229 68.2969 14.75C69.0677 14.6667 69.8438 14.5104 70.625 14.2812C70.7083 14.2396 70.7812 14.2188 70.8438 14.2188C71.0833 14.2188 71.2812 14.3073 71.4375 14.4844C71.6042 14.651 71.6875 14.8385 71.6875 15.0469V15.0781C71.6875 15.0885 71.6823 15.3229 71.6719 15.7812C71.6615 16.2292 71.651 16.8333 71.6406 17.5938C71.6406 18.3438 71.6354 19.2135 71.625 20.2031C71.6146 21.1927 71.6094 22.224 71.6094 23.2969C71.8385 22.974 72.1094 22.6771 72.4219 22.4062C72.7448 22.1354 73.099 21.901 73.4844 21.7031C73.8802 21.5052 74.2969 21.3542 74.7344 21.25C75.1719 21.1458 75.625 21.0938 76.0938 21.0938C77.1146 21.0938 77.9948 21.2917 78.7344 21.6875C79.474 22.0729 80.0781 22.6042 80.5469 23.2812C81.026 23.9583 81.3802 24.7552 81.6094 25.6719C81.8385 26.5885 81.9531 27.5677 81.9531 28.6094ZM94.8563 31.5312C94.8354 31.3542 94.8198 31.1719 94.8094 30.9844C94.799 30.7969 94.7938 30.6042 94.7938 30.4062H94.2156C93.799 30.4062 93.3042 30.4375 92.7313 30.5C92.1688 30.5625 91.5854 30.6615 90.9813 30.7969C90.3771 30.9323 89.7781 31.1146 89.1844 31.3438C88.5906 31.5625 88.0594 31.8333 87.5906 32.1562C87.1219 32.4688 86.7417 32.8385 86.45 33.2656C86.1688 33.6927 86.0281 34.1823 86.0281 34.7344C86.0281 35.026 86.0958 35.276 86.2313 35.4844C86.3771 35.6927 86.5542 35.8646 86.7625 36C86.9813 36.125 87.2208 36.2188 87.4813 36.2812C87.7417 36.3333 87.9917 36.3594 88.2313 36.3594C88.9708 36.3594 89.6688 36.2188 90.325 35.9375C90.9917 35.6458 91.6063 35.2708 92.1688 34.8125C92.7313 34.3438 93.2365 33.8229 93.6844 33.25C94.1323 32.6771 94.5229 32.1042 94.8563 31.5312ZM102.341 36.9375H102.278C102.101 36.9167 101.919 36.9062 101.731 36.9062C101.544 36.9062 101.361 36.9062 101.184 36.9062C100.205 36.9062 99.2625 36.9688 98.3563 37.0938C97.4604 37.2188 96.5594 37.4115 95.6531 37.6719C95.6219 37.6719 95.5906 37.6771 95.5594 37.6875C95.5281 37.6979 95.4865 37.7031 95.4344 37.7031C95.1948 37.7031 94.9969 37.6094 94.8406 37.4219C94.6948 37.2448 94.6219 37.0625 94.6219 36.875V36.75C94.6219 36.7292 94.6479 36.5208 94.7 36.125C94.7521 35.7188 94.8042 35.1562 94.8563 34.4375C94.4083 34.9375 93.9292 35.4062 93.4188 35.8438C92.9188 36.2708 92.3875 36.6458 91.825 36.9688C91.2729 37.2812 90.7 37.526 90.1063 37.7031C89.5125 37.8906 88.8979 37.9844 88.2625 37.9844C87.7625 37.9844 87.2781 37.9062 86.8094 37.75C86.3406 37.6042 85.924 37.3906 85.5594 37.1094C85.2052 36.8281 84.9188 36.4896 84.7 36.0938C84.4917 35.6875 84.3875 35.2344 84.3875 34.7344C84.3875 33.9531 84.5542 33.2656 84.8875 32.6719C85.2313 32.0781 85.6792 31.5625 86.2313 31.125C86.7833 30.6771 87.4083 30.3073 88.1063 30.0156C88.8146 29.7135 89.5333 29.474 90.2625 29.2969C90.9917 29.1094 91.7 28.9792 92.3875 28.9062C93.075 28.8229 93.6844 28.7812 94.2156 28.7812H94.5906C94.5906 28.1458 94.476 27.526 94.2469 26.9219C94.0281 26.3177 93.7156 25.7812 93.3094 25.3125C92.9135 24.8438 92.4396 24.4688 91.8875 24.1875C91.3354 23.8958 90.726 23.75 90.0594 23.75C89.5698 23.75 89.0906 23.8906 88.6219 24.1719C88.1531 24.4427 87.7365 24.7917 87.3719 25.2188C87.0073 25.6458 86.7104 26.125 86.4813 26.6562C86.2625 27.1875 86.1531 27.7031 86.1531 28.2031C86.1531 28.4115 86.0646 28.5885 85.8875 28.7344C85.7208 28.8698 85.5333 28.9375 85.325 28.9375C85.0958 28.9375 84.8979 28.8542 84.7313 28.6875C84.5646 28.5104 84.4813 28.3177 84.4813 28.1094C84.4813 27.6094 84.5698 27.0885 84.7469 26.5469C84.924 25.9948 85.1792 25.4583 85.5125 24.9375C85.8563 24.4062 86.2677 23.9062 86.7469 23.4375C87.2365 22.9688 87.7885 22.5573 88.4031 22.2031C89.0281 21.8385 89.7104 21.5521 90.45 21.3438C91.1896 21.1354 91.976 21.0312 92.8094 21.0312C93.976 21.0312 94.9708 21.2135 95.7938 21.5781C96.6271 21.9427 97.3198 22.4375 97.8719 23.0625C98.4344 23.6875 98.8771 24.4115 99.2 25.2344C99.5229 26.0573 99.7677 26.9271 99.9344 27.8438C100.101 28.7604 100.205 29.6927 100.247 30.6406C100.299 31.5885 100.325 32.4948 100.325 33.3594C100.325 33.7969 100.32 34.1719 100.309 34.4844C100.299 34.7969 100.294 35.0573 100.294 35.2656C100.45 35.2656 100.606 35.2604 100.763 35.25C100.929 35.2396 101.091 35.2344 101.247 35.2344C101.424 35.2344 101.606 35.2396 101.794 35.25C101.992 35.2604 102.184 35.2656 102.372 35.2656C102.601 35.2865 102.783 35.375 102.919 35.5312C103.065 35.6875 103.138 35.8802 103.138 36.1094C103.138 36.3281 103.059 36.5208 102.903 36.6875C102.757 36.8542 102.57 36.9375 102.341 36.9375ZM119.369 32.5469C119.369 33.1406 119.265 33.6875 119.056 34.1875C118.848 34.6771 118.567 35.125 118.213 35.5312C117.858 35.9271 117.447 36.276 116.978 36.5781C116.52 36.8698 116.03 37.1146 115.509 37.3125C114.999 37.5208 114.478 37.6719 113.947 37.7656C113.416 37.8698 112.905 37.9219 112.416 37.9219C111.093 37.9219 109.848 37.724 108.681 37.3281C107.515 36.9427 106.457 36.3438 105.509 35.5312C105.509 35.7083 105.509 35.8854 105.509 36.0625C105.509 36.2292 105.52 36.3906 105.541 36.5469V36.6094C105.541 36.8177 105.468 37.0052 105.322 37.1719C105.186 37.3385 105.015 37.4219 104.806 37.4219C104.567 37.4219 104.358 37.349 104.181 37.2031C104.015 37.0677 103.921 36.8958 103.9 36.6875C103.879 36.4792 103.869 36.2708 103.869 36.0625C103.869 35.8438 103.869 35.625 103.869 35.4062C103.869 35.0208 103.874 34.6406 103.884 34.2656C103.905 33.8906 103.926 33.5573 103.947 33.2656C103.968 32.9635 103.983 32.7188 103.994 32.5312C104.015 32.3333 104.03 32.224 104.041 32.2031C104.061 31.9948 104.145 31.8229 104.291 31.6875C104.447 31.5417 104.629 31.4688 104.838 31.4688C105.098 31.4688 105.301 31.5521 105.447 31.7188C105.593 31.8854 105.666 32.0677 105.666 32.2656V32.3594C105.655 32.4427 105.645 32.5365 105.634 32.6406C105.624 32.724 105.614 32.8281 105.603 32.9531C105.593 33.0781 105.582 33.2135 105.572 33.3594C106.52 34.3698 107.561 35.1094 108.697 35.5781C109.843 36.0365 111.082 36.2656 112.416 36.2656C112.572 36.2656 112.775 36.2552 113.025 36.2344C113.275 36.2135 113.535 36.1823 113.806 36.1406C114.088 36.0885 114.369 36.026 114.65 35.9531C114.931 35.8698 115.181 35.7708 115.4 35.6562C115.629 35.5312 115.811 35.3854 115.947 35.2188C116.093 35.0521 116.166 34.8542 116.166 34.625C116.166 34.3958 116.061 34.1927 115.853 34.0156C115.655 33.8281 115.4 33.6615 115.088 33.5156C114.775 33.3698 114.426 33.2448 114.041 33.1406C113.666 33.0365 113.296 32.9479 112.931 32.875C112.577 32.8021 112.254 32.7448 111.963 32.7031C111.681 32.6615 111.473 32.6302 111.338 32.6094C110.442 32.5156 109.556 32.3438 108.681 32.0938C107.817 31.8333 107.035 31.4792 106.338 31.0312C105.64 30.5833 105.077 30.0312 104.65 29.375C104.223 28.7188 104.009 27.9427 104.009 27.0469C104.009 26.1302 104.197 25.3073 104.572 24.5781C104.947 23.8385 105.436 23.2135 106.041 22.7031C106.655 22.1927 107.353 21.8021 108.134 21.5312C108.926 21.2604 109.733 21.125 110.556 21.125C111.64 21.125 112.666 21.2604 113.634 21.5312C114.614 21.7917 115.509 22.2031 116.322 22.7656C116.416 22.5365 116.525 22.3073 116.65 22.0781C116.775 21.8385 116.9 21.6094 117.025 21.3906C117.108 21.2552 117.213 21.1562 117.338 21.0938C117.473 21.0312 117.603 21 117.728 21C117.968 21 118.166 21.0833 118.322 21.25C118.478 21.4062 118.556 21.5885 118.556 21.7969C118.556 21.9635 118.515 22.1042 118.431 22.2188C118.035 22.9271 117.702 23.6458 117.431 24.375C117.171 25.0938 116.994 25.8229 116.9 26.5625C116.869 26.7604 116.775 26.9271 116.619 27.0625C116.463 27.1979 116.28 27.2656 116.072 27.2656C115.843 27.2656 115.65 27.1823 115.494 27.0156C115.338 26.8385 115.259 26.6458 115.259 26.4375V26.3125C115.374 25.6667 115.525 25.0156 115.713 24.3594C114.963 23.7656 114.145 23.3542 113.259 23.125C112.374 22.8854 111.473 22.7656 110.556 22.7656C110.244 22.7656 109.916 22.8021 109.572 22.875C109.228 22.9375 108.905 23.0469 108.603 23.2031C108.311 23.349 108.067 23.5469 107.869 23.7969C107.681 24.0469 107.588 24.3542 107.588 24.7188C107.588 25.0417 107.692 25.3281 107.9 25.5781C108.108 25.8177 108.374 26.0312 108.697 26.2188C109.02 26.4062 109.379 26.5677 109.775 26.7031C110.181 26.8385 110.577 26.9531 110.963 27.0469C111.358 27.1406 111.723 27.2188 112.056 27.2812C112.4 27.3438 112.671 27.3958 112.869 27.4375C113.598 27.5833 114.343 27.776 115.103 28.0156C115.874 28.2448 116.572 28.5573 117.197 28.9531C117.832 29.3385 118.353 29.8229 118.759 30.4062C119.166 30.9896 119.369 31.7031 119.369 32.5469ZM136.319 37.1875C135.694 37.1875 135.116 37.0885 134.584 36.8906C134.064 36.6823 133.579 36.4115 133.131 36.0781C132.694 35.7344 132.293 35.3333 131.928 34.875C131.564 34.4167 131.235 33.9323 130.944 33.4219C130.662 32.9115 130.412 32.3906 130.194 31.8594C129.985 31.3177 129.808 30.7917 129.662 30.2812C129.517 30.3125 129.376 30.3385 129.241 30.3594C129.116 30.3698 128.991 30.3854 128.866 30.4062V35.5C129.136 35.5312 129.397 35.5625 129.647 35.5938C129.907 35.625 130.157 35.6562 130.397 35.6875C130.595 35.7188 130.756 35.8125 130.881 35.9688C131.006 36.125 131.069 36.2969 131.069 36.4844C131.069 36.7448 130.98 36.9479 130.803 37.0938C130.626 37.2396 130.449 37.3125 130.272 37.3125H130.147C129.491 37.2188 128.798 37.1302 128.069 37.0469C127.35 36.974 126.569 36.9375 125.725 36.9375C125.11 36.9375 124.475 36.9635 123.819 37.0156C123.162 37.0677 122.475 37.1667 121.756 37.3125H121.6C121.36 37.3125 121.162 37.224 121.006 37.0469C120.85 36.8802 120.772 36.6927 120.772 36.4844C120.772 36.2969 120.834 36.1302 120.959 35.9844C121.084 35.8385 121.246 35.7396 121.444 35.6875C122.069 35.5625 122.699 35.4688 123.334 35.4062V16.4531C122.678 16.4219 122.126 16.3854 121.678 16.3438C121.23 16.2917 120.98 16.2656 120.928 16.2656C120.72 16.2344 120.548 16.1406 120.412 15.9844C120.287 15.8281 120.225 15.6458 120.225 15.4375C120.225 15.1771 120.319 14.9792 120.506 14.8438C120.694 14.6979 120.876 14.625 121.053 14.625H121.147C121.157 14.625 121.277 14.6406 121.506 14.6719C121.735 14.6927 122.032 14.724 122.397 14.7656C122.772 14.7969 123.194 14.8281 123.662 14.8594C124.131 14.8802 124.616 14.8906 125.116 14.8906C125.616 14.8906 126.105 14.875 126.584 14.8438C127.064 14.8021 127.501 14.7292 127.897 14.625H128.069C128.308 14.625 128.506 14.7083 128.662 14.875C128.819 15.0417 128.897 15.2292 128.897 15.4375V28.7812C130.543 28.4583 131.954 27.8698 133.131 27.0156C134.319 26.151 135.277 24.9271 136.006 23.3438H135.647C135.064 23.3438 134.59 23.3281 134.225 23.2969C133.86 23.2552 133.652 23.2344 133.6 23.2344C133.392 23.2031 133.22 23.1094 133.084 22.9531C132.959 22.7969 132.897 22.6146 132.897 22.4062C132.897 22.1458 132.991 21.9479 133.178 21.8125C133.366 21.6771 133.548 21.6094 133.725 21.6094H133.819C133.84 21.6094 134.022 21.625 134.366 21.6562C134.709 21.6875 135.136 21.7031 135.647 21.7031C135.939 21.7031 136.251 21.6927 136.584 21.6719C136.918 21.651 137.256 21.6198 137.6 21.5781C137.944 21.526 138.277 21.4583 138.6 21.375C138.933 21.2812 139.251 21.1667 139.553 21.0312C139.647 20.9688 139.751 20.9375 139.866 20.9375C140.105 20.9375 140.303 21.026 140.459 21.2031C140.626 21.3698 140.709 21.5573 140.709 21.7656C140.709 21.9323 140.668 22.0833 140.584 22.2188C140.501 22.3438 140.381 22.4375 140.225 22.5C139.86 22.6771 139.475 22.8229 139.069 22.9375C138.662 23.0521 138.246 23.1406 137.819 23.2031C137.433 24.2656 136.965 25.1771 136.412 25.9375C135.871 26.6979 135.298 27.3333 134.694 27.8438C134.985 28.6979 135.293 29.5052 135.616 30.2656C135.939 31.0156 136.261 31.6719 136.584 32.2344C136.918 32.7969 137.241 33.2448 137.553 33.5781C137.876 33.901 138.178 34.0625 138.459 34.0625C138.699 34.0625 138.881 33.974 139.006 33.7969C139.131 33.6094 139.215 33.3958 139.256 33.1562C139.308 32.9167 139.334 32.6719 139.334 32.4219C139.334 32.1719 139.334 31.9792 139.334 31.8438C139.334 31.5208 139.319 31.2083 139.287 30.9062C139.267 30.6042 139.241 30.3385 139.209 30.1094C139.178 29.8802 139.147 29.6979 139.116 29.5625C139.095 29.4271 139.079 29.3594 139.069 29.3594V29.1562C139.069 28.9375 139.147 28.7448 139.303 28.5781C139.47 28.4115 139.657 28.3281 139.866 28.3281C140.064 28.3281 140.235 28.3854 140.381 28.5C140.537 28.6146 140.636 28.7708 140.678 28.9688C140.689 29 140.709 29.099 140.741 29.2656C140.772 29.4219 140.803 29.625 140.834 29.875C140.876 30.125 140.912 30.4167 140.944 30.75C140.975 31.0729 140.991 31.4167 140.991 31.7812C140.991 32.5417 140.902 33.2552 140.725 33.9219C140.548 34.5781 140.267 35.151 139.881 35.6406C139.506 36.1198 139.022 36.5 138.428 36.7812C137.845 37.0521 137.142 37.1875 136.319 37.1875ZM157.253 28.75V28.4844C157.253 27.7031 157.17 26.9792 157.003 26.3125C156.836 25.6458 156.571 25.0573 156.206 24.5469C155.852 24.026 155.394 23.599 154.831 23.2656C154.269 22.9323 153.592 22.7083 152.8 22.5938C152.248 22.6562 151.769 22.8073 151.363 23.0469C150.956 23.2865 150.607 23.5833 150.316 23.9375C150.034 24.2812 149.8 24.6719 149.613 25.1094C149.425 25.5469 149.274 26 149.159 26.4688C149.055 26.9271 148.977 27.3906 148.925 27.8594C148.873 28.3177 148.842 28.75 148.831 29.1562C148.998 29.2083 149.206 29.2656 149.456 29.3281C149.717 29.3906 150.008 29.4531 150.331 29.5156C150.654 29.5677 151.003 29.6146 151.378 29.6562C151.764 29.6875 152.165 29.7031 152.581 29.7031C153.467 29.7031 154.295 29.6198 155.066 29.4531C155.847 29.2865 156.576 29.0521 157.253 28.75ZM158.847 29.3594C158.816 29.6302 158.67 29.8646 158.409 30.0625C158.149 30.2604 157.821 30.4375 157.425 30.5938C157.029 30.7396 156.592 30.8646 156.113 30.9688C155.644 31.0625 155.18 31.1406 154.722 31.2031C154.264 31.2656 153.842 31.3125 153.456 31.3438C153.071 31.3646 152.769 31.375 152.55 31.375C151.79 31.375 151.086 31.3229 150.441 31.2188C149.805 31.1146 149.279 31.0052 148.863 30.8906C148.925 31.5365 149.045 32.1719 149.222 32.7969C149.399 33.4219 149.654 33.9844 149.988 34.4844C150.321 34.974 150.738 35.375 151.238 35.6875C151.738 35.9896 152.342 36.1406 153.05 36.1406C153.31 36.1406 153.607 36.1094 153.941 36.0469C154.274 35.974 154.602 35.875 154.925 35.75C155.248 35.6146 155.545 35.4583 155.816 35.2812C156.086 35.0938 156.3 34.8854 156.456 34.6562C156.633 34.4479 156.847 34.3438 157.097 34.3438C157.316 34.3438 157.508 34.4323 157.675 34.6094C157.842 34.776 157.925 34.9635 157.925 35.1719C157.925 35.3906 157.857 35.5625 157.722 35.6875C157.472 36.0729 157.123 36.401 156.675 36.6719C156.227 36.9427 155.743 37.1615 155.222 37.3281C154.701 37.5052 154.175 37.6302 153.644 37.7031C153.113 37.7865 152.628 37.8281 152.191 37.8281C150.941 37.8281 149.779 37.6042 148.706 37.1562C147.633 36.7188 146.701 36.1146 145.909 35.3438C145.118 34.5729 144.493 33.6667 144.034 32.625C143.586 31.5833 143.363 30.4583 143.363 29.25C143.363 27.9271 143.56 26.75 143.956 25.7188C144.352 24.6771 144.915 23.8021 145.644 23.0938C146.373 22.375 147.258 21.8333 148.3 21.4688C149.342 21.0938 150.514 20.9062 151.816 20.9062C153.045 20.9583 154.102 21.1667 154.988 21.5312C155.883 21.8958 156.618 22.401 157.191 23.0469C157.764 23.6927 158.185 24.474 158.456 25.3906C158.738 26.2969 158.878 27.3177 158.878 28.4531C158.878 28.7135 158.873 28.9219 158.863 29.0781C158.852 29.224 158.847 29.3177 158.847 29.3594ZM173.516 21.7969C173.516 22.0052 173.443 22.1927 173.297 22.3594C173.161 22.5156 172.99 22.6042 172.781 22.625C172.104 22.6771 171.432 22.724 170.766 22.7656C170.099 22.8073 169.427 22.8385 168.75 22.8594V33.7969C168.75 34.0052 168.792 34.1979 168.875 34.375C168.969 34.5521 169.083 34.7031 169.219 34.8281C169.365 34.9531 169.526 35.0521 169.703 35.125C169.88 35.1979 170.062 35.2344 170.25 35.2344C170.531 35.2344 170.76 35.1615 170.938 35.0156C171.125 34.8594 171.281 34.6719 171.406 34.4531C171.531 34.224 171.63 33.9844 171.703 33.7344C171.786 33.4844 171.854 33.2604 171.906 33.0625C171.938 32.875 172.031 32.724 172.188 32.6094C172.344 32.4844 172.516 32.4219 172.703 32.4219C172.943 32.4219 173.135 32.5156 173.281 32.7031C173.438 32.8802 173.516 33.0625 173.516 33.25V33.4219C173.214 34.8073 172.62 35.8802 171.734 36.6406C170.849 37.3906 169.755 37.7656 168.453 37.7656C167.859 37.7656 167.25 37.6875 166.625 37.5312C166 37.375 165.432 37.0833 164.922 36.6562C164.422 36.2292 164.01 35.6406 163.688 34.8906C163.365 34.1302 163.203 33.1458 163.203 31.9375V22.8281C162.734 22.7969 162.26 22.7656 161.781 22.7344C161.312 22.7031 160.839 22.6667 160.359 22.625C160.151 22.5938 159.974 22.5 159.828 22.3438C159.693 22.1875 159.625 22.0052 159.625 21.7969C159.625 21.5573 159.714 21.3646 159.891 21.2188C160.078 21.0729 160.266 21 160.453 21H160.516C160.974 21.0312 161.422 21.0625 161.859 21.0938C162.307 21.125 162.755 21.1562 163.203 21.1875V15.875C163.203 15.6979 163.26 15.5365 163.375 15.3906C163.49 15.2344 163.635 15.1302 163.812 15.0781L167.719 14.0312C167.75 14.0104 167.786 14 167.828 14C167.87 13.9896 167.906 13.9844 167.938 13.9844C168.177 13.9844 168.37 14.0729 168.516 14.25C168.672 14.4271 168.75 14.6198 168.75 14.8281V21.2188C169.385 21.1979 170.026 21.1719 170.672 21.1406C171.328 21.099 171.984 21.0521 172.641 21H172.703C172.932 21 173.125 21.0833 173.281 21.25C173.438 21.4062 173.516 21.5885 173.516 21.7969Z" fill="#FF8137"/>
<defs>
<filter id="filter0_d_20_22" x="0" y="0" width="56" height="56" filterUnits="userSpaceOnUse" color-interpolation-filters="sRGB">
<feFlood flood-opacity="0" result="BackgroundImageFix"/>
<feColorMatrix in="SourceAlpha" type="matrix" values="0 0 0 0 0 0 0 0 0 0 0 0 0 0 0 0 0 0 127 0" result="hardAlpha"/>
<feOffset dy="4"/>
<feGaussianBlur stdDeviation="2"/>
<feComposite in2="hardAlpha" operator="out"/>
<feColorMatrix type="matrix" values="0 0 0 0 0 0 0 0 0 0 0 0 0 0 0 0 0 0 0.25 0"/>
<feBlend mode="normal" in2="BackgroundImageFix" result="effect1_dropShadow_20_22"/>
<feBlend mode="normal" in="SourceGraphic" in2="effect1_dropShadow_20_22" result="shape"/>
</filter>
<filter id="filter1_d_20_22" x="9.24965" y="12.5" width="40.7504" height="34.5" filterUnits="userSpaceOnUse" color-interpolation-filters="sRGB">
<feFlood flood-opacity="0" result="BackgroundImageFix"/>
<feColorMatrix in="SourceAlpha" type="matrix" values="0 0 0 0 0 0 0 0 0 0 0 0 0 0 0 0 0 0 127 0" result="hardAlpha"/>
<feOffset dy="4"/>
<feGaussianBlur stdDeviation="2"/>
<feComposite in2="hardAlpha" operator="out"/>
<feColorMatrix type="matrix" values="0 0 0 0 0 0 0 0 0 0 0 0 0 0 0 0 0 0 0.25 0"/>
<feBlend mode="normal" in2="BackgroundImageFix" result="effect1_dropShadow_20_22"/>
<feBlend mode="normal" in="SourceGraphic" in2="effect1_dropShadow_20_22" result="shape"/>
</filter>
<filter id="filter2_d_20_22" x="9.24965" y="12.5" width="40.7504" height="34.5" filterUnits="userSpaceOnUse" color-interpolation-filters="sRGB">
<feFlood flood-opacity="0" result="BackgroundImageFix"/>
<feColorMatrix in="SourceAlpha" type="matrix" values="0 0 0 0 0 0 0 0 0 0 0 0 0 0 0 0 0 0 127 0" result="hardAlpha"/>
<feOffset dy="4"/>
<feGaussianBlur stdDeviation="2"/>
<feComposite in2="hardAlpha" operator="out"/>
<feColorMatrix type="matrix" values="0 0 0 0 0 0 0 0 0 0 0 0 0 0 0 0 0 0 0.25 0"/>
<feBlend mode="normal" in2="BackgroundImageFix" result="effect1_dropShadow_20_22"/>
<feBlend mode="normal" in="SourceGraphic" in2="effect1_dropShadow_20_22" result="shape"/>
</filter>
</defs>
</svg>
