<svg width="153" height="153" viewBox="0 0 153 153" fill="none" xmlns="http://www.w3.org/2000/svg">
<circle cx="76.5" cy="76.5" r="76.5" fill="#FF8137"/>
<path d="M32.8418 94.8228C32.8418 93.9341 32.762 93.1024 32.6025 92.3276C32.443 91.5415 32.181 90.8579 31.8164 90.2769C31.4632 89.6958 30.9961 89.2401 30.415 88.9097C29.834 88.5679 29.1162 88.397 28.2617 88.397C27.7832 88.397 27.3332 88.4767 26.9116 88.6362C26.4901 88.7957 26.097 89.0065 25.7324 89.2686C25.3792 89.5306 25.0545 89.8211 24.7583 90.1401C24.4735 90.4591 24.2285 90.7782 24.0234 91.0972C23.8184 91.4048 23.6532 91.701 23.5278 91.9858C23.4139 92.2593 23.3455 92.4814 23.3228 92.6523C23.3228 93.3587 23.3285 94.048 23.3398 94.7202C23.3626 95.3924 23.3854 96.0475 23.4082 96.6855C23.431 97.5286 23.5278 98.3091 23.6987 99.0269C23.881 99.7332 24.1431 100.343 24.4849 100.855C24.8267 101.368 25.2539 101.773 25.7666 102.069C26.2907 102.354 26.9116 102.496 27.6294 102.496C28.5522 102.496 29.3384 102.268 29.9878 101.812C30.6486 101.357 31.1898 100.764 31.6113 100.035C32.0329 99.306 32.3405 98.4857 32.5342 97.5742C32.7393 96.6628 32.8418 95.7456 32.8418 94.8228ZM34.6362 94.8228C34.6362 96.2811 34.4255 97.6483 34.0039 98.9243C33.5824 100.189 32.9671 101.294 32.1582 102.24C31.3493 103.185 30.3581 103.932 29.1846 104.479C28.0111 105.025 26.6667 105.299 25.1514 105.299C24.0576 105.299 23.0379 105.105 22.0923 104.718C21.158 104.342 20.3377 103.812 19.6313 103.128C18.9364 102.445 18.3781 101.636 17.9565 100.702C17.5464 99.7674 17.3185 98.742 17.2729 97.6255C17.2502 96.9191 17.2331 96.019 17.2217 94.9253C17.2103 93.8201 17.2046 92.6353 17.2046 91.3706C17.2046 90.425 17.2046 89.4679 17.2046 88.4995C17.216 87.5311 17.2217 86.6139 17.2217 85.748C17.2331 84.8708 17.2388 84.0732 17.2388 83.3555C17.2502 82.6377 17.2616 82.0509 17.2729 81.5952C16.3273 81.5952 15.5583 81.5553 14.9658 81.4756C14.3734 81.3958 14.0487 81.3446 13.9917 81.3218C13.7752 81.2876 13.5986 81.1851 13.4619 81.0142C13.3252 80.8433 13.2568 80.6553 13.2568 80.4502C13.2568 80.3021 13.291 80.1711 13.3594 80.0571C13.4163 79.9432 13.4904 79.8464 13.5815 79.7666C13.6727 79.6868 13.7695 79.6299 13.8721 79.5957C13.9746 79.5501 14.0715 79.5273 14.1626 79.5273C14.1854 79.5273 14.2082 79.5273 14.231 79.5273C14.2537 79.5273 14.2765 79.5387 14.2993 79.5615C14.3107 79.5615 14.3962 79.5729 14.5557 79.5957C14.7152 79.6185 14.9316 79.647 15.2051 79.6812C15.4785 79.7039 15.7975 79.7267 16.1621 79.7495C16.5381 79.7723 16.9425 79.7837 17.3755 79.7837C18.0819 79.7837 18.8566 79.7438 19.6997 79.6641C20.5428 79.5729 21.3916 79.402 22.2461 79.1514C22.3372 79.1058 22.417 79.083 22.4854 79.083C22.7474 79.083 22.9639 79.1799 23.1348 79.3735C23.3171 79.5558 23.4082 79.7609 23.4082 79.9888V80.0229C23.4082 80.0343 23.4025 80.2907 23.3911 80.792C23.3797 81.2819 23.3683 81.9427 23.3569 82.7744C23.3569 83.5947 23.3512 84.5461 23.3398 85.6284C23.3285 86.7108 23.3228 87.8387 23.3228 89.0122C23.5734 88.659 23.8696 88.3343 24.2114 88.0381C24.5646 87.7419 24.952 87.4855 25.3735 87.269C25.8065 87.0526 26.2622 86.8874 26.7407 86.7734C27.2192 86.6595 27.7148 86.6025 28.2275 86.6025C29.3441 86.6025 30.3068 86.819 31.1157 87.252C31.9246 87.6735 32.5854 88.2546 33.0981 88.9951C33.6222 89.7357 34.0096 90.6073 34.2603 91.6099C34.5109 92.6125 34.6362 93.6834 34.6362 94.8228ZM49.0771 98.0186C49.0544 97.8249 49.0373 97.6255 49.0259 97.4204C49.0145 97.2153 49.0088 97.0046 49.0088 96.7881H48.3765C47.9207 96.7881 47.3796 96.8223 46.7529 96.8906C46.1377 96.959 45.4997 97.0672 44.8389 97.2153C44.1781 97.3634 43.5229 97.5628 42.8735 97.8135C42.2241 98.0527 41.6431 98.349 41.1304 98.7021C40.6177 99.0439 40.2018 99.4484 39.8828 99.9155C39.5752 100.383 39.4214 100.918 39.4214 101.522C39.4214 101.841 39.4954 102.114 39.6436 102.342C39.8031 102.57 39.9967 102.758 40.2246 102.906C40.4639 103.043 40.7259 103.146 41.0107 103.214C41.2956 103.271 41.569 103.299 41.8311 103.299C42.64 103.299 43.4033 103.146 44.1211 102.838C44.8503 102.519 45.5225 102.109 46.1377 101.607C46.7529 101.095 47.3055 100.525 47.7954 99.8984C48.2853 99.2718 48.7126 98.6452 49.0771 98.0186ZM57.2632 103.932H57.1948C57.0011 103.909 56.8018 103.897 56.5967 103.897C56.3916 103.897 56.1922 103.897 55.9985 103.897C54.9276 103.897 53.8965 103.966 52.9053 104.103C51.9255 104.239 50.9399 104.45 49.9487 104.735C49.9146 104.735 49.8804 104.741 49.8462 104.752C49.812 104.763 49.7664 104.769 49.7095 104.769C49.4474 104.769 49.231 104.667 49.0601 104.461C48.9006 104.268 48.8208 104.068 48.8208 103.863V103.727C48.8208 103.704 48.8493 103.476 48.9062 103.043C48.9632 102.599 49.0202 101.983 49.0771 101.197C48.5872 101.744 48.0632 102.257 47.5049 102.735C46.958 103.202 46.377 103.613 45.7617 103.966C45.1579 104.308 44.5312 104.575 43.8818 104.769C43.2324 104.974 42.5602 105.077 41.8652 105.077C41.3184 105.077 40.7886 104.991 40.2759 104.82C39.7632 104.661 39.3075 104.427 38.9087 104.12C38.5213 103.812 38.208 103.442 37.9688 103.009C37.7409 102.564 37.627 102.069 37.627 101.522C37.627 100.667 37.8092 99.9155 38.1738 99.2661C38.5498 98.6167 39.0397 98.0527 39.6436 97.5742C40.2474 97.0843 40.931 96.6799 41.6943 96.3608C42.4691 96.0304 43.2552 95.7684 44.0527 95.5747C44.8503 95.3696 45.625 95.2272 46.377 95.1475C47.1289 95.0563 47.7954 95.0107 48.3765 95.0107H48.7866C48.7866 94.3158 48.6613 93.6379 48.4106 92.9771C48.1714 92.3162 47.8296 91.7295 47.3853 91.2168C46.9523 90.7041 46.4339 90.2939 45.8301 89.9863C45.2262 89.6673 44.5597 89.5078 43.8306 89.5078C43.2951 89.5078 42.771 89.6616 42.2583 89.9692C41.7456 90.2655 41.2899 90.6471 40.8911 91.1143C40.4924 91.5814 40.1676 92.1055 39.917 92.6865C39.6777 93.2676 39.5581 93.8315 39.5581 94.3784C39.5581 94.6063 39.4613 94.8 39.2676 94.9595C39.0853 95.1076 38.8802 95.1816 38.6523 95.1816C38.4017 95.1816 38.1852 95.0905 38.0029 94.9082C37.8206 94.7145 37.7295 94.5037 37.7295 94.2759C37.7295 93.729 37.8263 93.1593 38.02 92.5669C38.2137 91.9631 38.4928 91.3763 38.8574 90.8066C39.2334 90.2256 39.6834 89.6787 40.2075 89.166C40.743 88.6533 41.3468 88.2033 42.019 87.8159C42.7026 87.4172 43.4489 87.1038 44.2578 86.876C45.0667 86.6481 45.9269 86.5342 46.8384 86.5342C48.1144 86.5342 49.2025 86.7336 50.1025 87.1323C51.014 87.5311 51.7716 88.0723 52.3755 88.7559C52.9907 89.4395 53.4749 90.2313 53.8281 91.1313C54.1813 92.0314 54.4491 92.9827 54.6313 93.9854C54.8136 94.988 54.9276 96.0076 54.9731 97.0444C55.0301 98.0812 55.0586 99.0724 55.0586 100.018C55.0586 100.497 55.0529 100.907 55.0415 101.249C55.0301 101.59 55.0244 101.875 55.0244 102.103C55.1953 102.103 55.3662 102.097 55.5371 102.086C55.7194 102.075 55.896 102.069 56.0669 102.069C56.2606 102.069 56.46 102.075 56.665 102.086C56.8815 102.097 57.0923 102.103 57.2974 102.103C57.548 102.126 57.7474 102.223 57.8955 102.394C58.055 102.564 58.1348 102.775 58.1348 103.026C58.1348 103.265 58.0493 103.476 57.8784 103.658C57.7189 103.84 57.5138 103.932 57.2632 103.932ZM76.2158 99.1294C76.2158 99.7788 76.1019 100.377 75.874 100.924C75.6462 101.459 75.3385 101.949 74.9512 102.394C74.5638 102.826 74.1138 103.208 73.6011 103.539C73.0998 103.858 72.5643 104.125 71.9946 104.342C71.4364 104.57 70.8667 104.735 70.2856 104.837C69.7046 104.951 69.1463 105.008 68.6108 105.008C67.1639 105.008 65.8024 104.792 64.5264 104.359C63.2503 103.937 62.0939 103.282 61.0571 102.394C61.0571 102.587 61.0571 102.781 61.0571 102.975C61.0571 103.157 61.0685 103.333 61.0913 103.504V103.573C61.0913 103.801 61.0116 104.006 60.8521 104.188C60.7039 104.37 60.516 104.461 60.2881 104.461C60.026 104.461 59.7982 104.382 59.6045 104.222C59.4222 104.074 59.3197 103.886 59.2969 103.658C59.2741 103.43 59.2627 103.202 59.2627 102.975C59.2627 102.735 59.2627 102.496 59.2627 102.257C59.2627 101.835 59.2684 101.419 59.2798 101.009C59.3026 100.599 59.3254 100.235 59.3481 99.9155C59.3709 99.5851 59.388 99.3174 59.3994 99.1123C59.4222 98.8958 59.4393 98.7762 59.4507 98.7534C59.4735 98.5256 59.5646 98.3376 59.7241 98.1895C59.895 98.0299 60.0944 97.9502 60.3223 97.9502C60.6071 97.9502 60.8293 98.0413 60.9888 98.2236C61.1483 98.4059 61.228 98.6053 61.228 98.8218V98.9243C61.2166 99.0155 61.2052 99.118 61.1938 99.2319C61.1825 99.3231 61.1711 99.437 61.1597 99.5737C61.1483 99.7104 61.1369 99.8586 61.1255 100.018C62.1623 101.123 63.3016 101.932 64.5435 102.445C65.7967 102.946 67.1525 103.197 68.6108 103.197C68.7817 103.197 69.0039 103.185 69.2773 103.163C69.5508 103.14 69.8356 103.106 70.1318 103.06C70.4395 103.003 70.7471 102.935 71.0547 102.855C71.3623 102.764 71.6357 102.656 71.875 102.53C72.1257 102.394 72.325 102.234 72.4731 102.052C72.6326 101.869 72.7124 101.653 72.7124 101.402C72.7124 101.152 72.5985 100.93 72.3706 100.736C72.1541 100.531 71.875 100.348 71.5332 100.189C71.1914 100.029 70.8097 99.8927 70.3882 99.7788C69.978 99.6649 69.5736 99.568 69.1748 99.4883C68.7874 99.4085 68.4342 99.3459 68.1152 99.3003C67.8076 99.2547 67.5798 99.2205 67.4316 99.1978C66.4518 99.0952 65.4834 98.9072 64.5264 98.6338C63.5807 98.349 62.7262 97.9616 61.9629 97.4717C61.1995 96.9818 60.5843 96.3779 60.1172 95.6602C59.6501 94.9424 59.4165 94.0936 59.4165 93.1138C59.4165 92.1112 59.6216 91.2111 60.0317 90.4136C60.4419 89.6047 60.9774 88.9211 61.6382 88.3628C62.3104 87.8045 63.0737 87.3773 63.9282 87.0811C64.7941 86.7848 65.6771 86.6367 66.5771 86.6367C67.762 86.6367 68.8843 86.7848 69.9438 87.0811C71.0148 87.3659 71.9946 87.8159 72.8833 88.4312C72.9858 88.1805 73.1055 87.9299 73.2422 87.6792C73.3789 87.4172 73.5156 87.1665 73.6523 86.9272C73.7435 86.7791 73.8574 86.6709 73.9941 86.6025C74.1423 86.5342 74.2847 86.5 74.4214 86.5C74.6834 86.5 74.8999 86.5911 75.0708 86.7734C75.2417 86.9443 75.3271 87.1437 75.3271 87.3716C75.3271 87.5539 75.2816 87.7077 75.1904 87.833C74.7575 88.6077 74.3929 89.3939 74.0967 90.1914C73.8118 90.9775 73.6182 91.7751 73.5156 92.584C73.4814 92.8005 73.3789 92.9827 73.208 93.1309C73.0371 93.279 72.8377 93.353 72.6099 93.353C72.3592 93.353 72.1484 93.2619 71.9775 93.0796C71.8066 92.8859 71.7212 92.6751 71.7212 92.4473V92.3105C71.8465 91.6042 72.0117 90.8921 72.2168 90.1743C71.3965 89.5249 70.5021 89.0749 69.5337 88.8242C68.5653 88.5622 67.5798 88.4312 66.5771 88.4312C66.2354 88.4312 65.8765 88.471 65.5005 88.5508C65.1245 88.6191 64.7713 88.7388 64.4409 88.9097C64.1219 89.0692 63.8542 89.2856 63.6377 89.5591C63.4326 89.8325 63.3301 90.1686 63.3301 90.5674C63.3301 90.9206 63.444 91.2339 63.6719 91.5073C63.8997 91.7694 64.1903 92.0029 64.5435 92.208C64.8966 92.4131 65.2897 92.5897 65.7227 92.7378C66.167 92.8859 66.5999 93.0112 67.0215 93.1138C67.4544 93.2163 67.8532 93.3018 68.2178 93.3701C68.5938 93.4385 68.89 93.4954 69.1064 93.541C69.904 93.7005 70.7186 93.9113 71.5503 94.1733C72.3934 94.424 73.1567 94.7658 73.8403 95.1987C74.5353 95.6203 75.105 96.1501 75.5493 96.7881C75.9937 97.4261 76.2158 98.2065 76.2158 99.1294ZM95.083 104.205C94.3994 104.205 93.7671 104.097 93.186 103.88C92.6164 103.653 92.0866 103.356 91.5967 102.992C91.1182 102.616 90.6795 102.177 90.2808 101.676C89.882 101.174 89.5231 100.645 89.2041 100.086C88.8965 99.5282 88.623 98.9585 88.3838 98.3774C88.1559 97.785 87.9622 97.2096 87.8027 96.6514C87.6432 96.6855 87.4894 96.714 87.3413 96.7368C87.2046 96.7482 87.0679 96.7653 86.9312 96.7881V102.359C87.2274 102.394 87.5122 102.428 87.7856 102.462C88.0705 102.496 88.3439 102.53 88.606 102.564C88.8224 102.599 88.999 102.701 89.1357 102.872C89.2725 103.043 89.3408 103.231 89.3408 103.436C89.3408 103.721 89.244 103.943 89.0503 104.103C88.8566 104.262 88.6629 104.342 88.4692 104.342H88.3325C87.6147 104.239 86.8571 104.142 86.0596 104.051C85.2734 103.972 84.4189 103.932 83.4961 103.932C82.8239 103.932 82.1289 103.96 81.4111 104.017C80.6934 104.074 79.9414 104.182 79.1553 104.342H78.9844C78.7223 104.342 78.5059 104.245 78.335 104.051C78.1641 103.869 78.0786 103.664 78.0786 103.436C78.0786 103.231 78.147 103.049 78.2837 102.889C78.4204 102.73 78.597 102.621 78.8135 102.564C79.4971 102.428 80.1864 102.325 80.8813 102.257V81.5269C80.1636 81.4927 79.5597 81.4528 79.0698 81.4072C78.5799 81.3503 78.3065 81.3218 78.2495 81.3218C78.0216 81.2876 77.8337 81.1851 77.6855 81.0142C77.5488 80.8433 77.4805 80.6439 77.4805 80.416C77.4805 80.1312 77.583 79.9147 77.7881 79.7666C77.9932 79.6071 78.1925 79.5273 78.3862 79.5273H78.4888C78.5002 79.5273 78.6312 79.5444 78.8818 79.5786C79.1325 79.6014 79.4572 79.6356 79.856 79.6812C80.2661 79.7153 80.7275 79.7495 81.2402 79.7837C81.7529 79.8065 82.2827 79.8179 82.8296 79.8179C83.3765 79.8179 83.9119 79.8008 84.436 79.7666C84.9601 79.721 85.4386 79.6413 85.8716 79.5273H86.0596C86.3216 79.5273 86.5381 79.6185 86.709 79.8008C86.8799 79.9831 86.9653 80.1882 86.9653 80.416V95.0107C88.7655 94.6576 90.3092 94.0138 91.5967 93.0796C92.8955 92.134 93.9437 90.7952 94.7412 89.0635H94.3481C93.7101 89.0635 93.1917 89.0464 92.793 89.0122C92.3942 88.9666 92.1663 88.9438 92.1094 88.9438C91.8815 88.9097 91.6935 88.8071 91.5454 88.6362C91.4087 88.4653 91.3403 88.266 91.3403 88.0381C91.3403 87.7533 91.4429 87.5368 91.6479 87.3887C91.853 87.2406 92.0524 87.1665 92.2461 87.1665H92.3486C92.3714 87.1665 92.5708 87.1836 92.9468 87.2178C93.3228 87.252 93.7899 87.269 94.3481 87.269C94.6672 87.269 95.009 87.2576 95.3735 87.2349C95.7381 87.2121 96.1084 87.1779 96.4844 87.1323C96.8604 87.0754 97.2249 87.0013 97.5781 86.9102C97.9427 86.8076 98.2902 86.6823 98.6206 86.5342C98.7231 86.4658 98.8371 86.4316 98.9624 86.4316C99.2244 86.4316 99.4409 86.5285 99.6118 86.7222C99.7941 86.9045 99.8853 87.1095 99.8853 87.3374C99.8853 87.5197 99.8397 87.6849 99.7485 87.833C99.6574 87.9697 99.5264 88.0723 99.3555 88.1406C98.9567 88.3343 98.5352 88.4938 98.0908 88.6191C97.6465 88.7445 97.1908 88.8413 96.7236 88.9097C96.3021 90.0718 95.7894 91.0687 95.1855 91.9004C94.5931 92.7321 93.9665 93.4271 93.3057 93.9854C93.6247 94.9196 93.9608 95.8026 94.314 96.6343C94.6672 97.4546 95.0203 98.1724 95.3735 98.7876C95.7381 99.4028 96.0913 99.8927 96.4331 100.257C96.7863 100.611 97.1167 100.787 97.4243 100.787C97.6864 100.787 97.8857 100.69 98.0225 100.497C98.1592 100.292 98.2503 100.058 98.2959 99.7959C98.3529 99.5339 98.3813 99.2661 98.3813 98.9927C98.3813 98.7192 98.3813 98.5085 98.3813 98.3604C98.3813 98.0072 98.3643 97.6654 98.3301 97.335C98.3073 97.0046 98.2788 96.714 98.2446 96.4634C98.2104 96.2127 98.1763 96.0133 98.1421 95.8652C98.1193 95.7171 98.1022 95.6431 98.0908 95.6431V95.4209C98.0908 95.1816 98.1763 94.9709 98.3472 94.7886C98.5295 94.6063 98.7345 94.5151 98.9624 94.5151C99.1789 94.5151 99.3669 94.5778 99.5264 94.7031C99.6973 94.8285 99.8055 94.9993 99.8511 95.2158C99.8625 95.25 99.8853 95.3582 99.9194 95.5405C99.9536 95.7114 99.9878 95.9336 100.022 96.207C100.068 96.4805 100.107 96.7995 100.142 97.1641C100.176 97.5173 100.193 97.8932 100.193 98.292C100.193 99.1237 100.096 99.9041 99.9023 100.633C99.7087 101.351 99.401 101.978 98.9795 102.513C98.5693 103.037 98.0396 103.453 97.3901 103.761C96.7521 104.057 95.9831 104.205 95.083 104.205ZM118.308 94.9766V94.686C118.308 93.8315 118.217 93.0397 118.035 92.3105C117.852 91.5814 117.562 90.9377 117.163 90.3794C116.776 89.8097 116.274 89.3426 115.659 88.978C115.044 88.6134 114.303 88.3685 113.438 88.2432C112.834 88.3115 112.31 88.4767 111.865 88.7388C111.421 89.0008 111.039 89.3255 110.72 89.7129C110.413 90.0889 110.156 90.5161 109.951 90.9946C109.746 91.4731 109.581 91.9688 109.456 92.4814C109.342 92.9827 109.256 93.4897 109.199 94.0024C109.142 94.5037 109.108 94.9766 109.097 95.4209C109.279 95.4779 109.507 95.5405 109.78 95.6089C110.065 95.6772 110.384 95.7456 110.737 95.814C111.09 95.8709 111.472 95.9222 111.882 95.9678C112.304 96.002 112.743 96.019 113.198 96.019C114.167 96.019 115.072 95.9279 115.916 95.7456C116.77 95.5633 117.568 95.307 118.308 94.9766ZM120.051 95.6431C120.017 95.9393 119.858 96.1956 119.573 96.4121C119.288 96.6286 118.929 96.8223 118.496 96.9932C118.063 97.1527 117.585 97.2894 117.061 97.4033C116.548 97.5059 116.041 97.5913 115.54 97.6597C115.038 97.728 114.577 97.7793 114.155 97.8135C113.734 97.8363 113.403 97.8477 113.164 97.8477C112.332 97.8477 111.563 97.7907 110.857 97.6768C110.162 97.5628 109.587 97.4432 109.131 97.3179C109.199 98.0243 109.33 98.7192 109.524 99.4028C109.718 100.086 109.997 100.702 110.361 101.249C110.726 101.784 111.182 102.223 111.729 102.564C112.275 102.895 112.936 103.06 113.711 103.06C113.996 103.06 114.32 103.026 114.685 102.958C115.05 102.878 115.409 102.77 115.762 102.633C116.115 102.485 116.44 102.314 116.736 102.12C117.032 101.915 117.266 101.687 117.437 101.437C117.63 101.209 117.864 101.095 118.137 101.095C118.376 101.095 118.587 101.192 118.77 101.385C118.952 101.568 119.043 101.773 119.043 102C119.043 102.24 118.969 102.428 118.821 102.564C118.547 102.986 118.166 103.345 117.676 103.641C117.186 103.937 116.656 104.177 116.086 104.359C115.517 104.553 114.941 104.689 114.36 104.769C113.779 104.86 113.25 104.906 112.771 104.906C111.404 104.906 110.133 104.661 108.96 104.171C107.786 103.692 106.767 103.032 105.901 102.188C105.035 101.345 104.351 100.354 103.85 99.2148C103.36 98.0755 103.115 96.8451 103.115 95.5234C103.115 94.0765 103.332 92.7891 103.765 91.6611C104.198 90.5218 104.813 89.5648 105.61 88.79C106.408 88.0039 107.376 87.4115 108.516 87.0127C109.655 86.6025 110.937 86.3975 112.361 86.3975C113.705 86.4544 114.862 86.6823 115.83 87.0811C116.81 87.4798 117.613 88.0324 118.24 88.7388C118.866 89.4451 119.328 90.2996 119.624 91.3022C119.932 92.2935 120.085 93.41 120.085 94.6519C120.085 94.9367 120.08 95.1646 120.068 95.3354C120.057 95.495 120.051 95.5975 120.051 95.6431ZM136.423 87.3716C136.423 87.5994 136.344 87.8045 136.184 87.9868C136.036 88.1577 135.848 88.2546 135.62 88.2773C134.88 88.3343 134.145 88.3856 133.416 88.4312C132.686 88.4767 131.951 88.5109 131.211 88.5337V100.497C131.211 100.724 131.257 100.935 131.348 101.129C131.45 101.323 131.576 101.488 131.724 101.625C131.883 101.761 132.06 101.869 132.253 101.949C132.447 102.029 132.646 102.069 132.852 102.069C133.159 102.069 133.41 101.989 133.604 101.83C133.809 101.659 133.979 101.454 134.116 101.214C134.253 100.964 134.361 100.702 134.441 100.428C134.532 100.155 134.606 99.9098 134.663 99.6934C134.697 99.4883 134.8 99.3231 134.971 99.1978C135.142 99.061 135.33 98.9927 135.535 98.9927C135.797 98.9927 136.007 99.0952 136.167 99.3003C136.338 99.494 136.423 99.6934 136.423 99.8984V100.086C136.093 101.602 135.444 102.775 134.475 103.607C133.507 104.427 132.31 104.837 130.886 104.837C130.237 104.837 129.57 104.752 128.887 104.581C128.203 104.41 127.582 104.091 127.024 103.624C126.477 103.157 126.027 102.513 125.674 101.693C125.321 100.861 125.144 99.7845 125.144 98.4629V88.4995C124.631 88.4653 124.113 88.4312 123.589 88.397C123.076 88.3628 122.558 88.3229 122.034 88.2773C121.806 88.2432 121.612 88.1406 121.453 87.9697C121.305 87.7988 121.23 87.5994 121.23 87.3716C121.23 87.1095 121.327 86.8988 121.521 86.7393C121.726 86.5798 121.931 86.5 122.136 86.5H122.205C122.706 86.5342 123.196 86.5684 123.674 86.6025C124.164 86.6367 124.654 86.6709 125.144 86.7051V80.8945C125.144 80.7008 125.207 80.5243 125.332 80.3647C125.457 80.1938 125.617 80.0799 125.811 80.0229L130.083 78.8779C130.117 78.8551 130.157 78.8438 130.203 78.8438C130.248 78.8324 130.288 78.8267 130.322 78.8267C130.584 78.8267 130.795 78.9235 130.955 79.1172C131.125 79.3109 131.211 79.5216 131.211 79.7495V86.7393C131.906 86.7165 132.607 86.688 133.313 86.6538C134.031 86.6082 134.749 86.557 135.466 86.5H135.535C135.785 86.5 135.996 86.5911 136.167 86.7734C136.338 86.9443 136.423 87.1437 136.423 87.3716Z" fill="white"/>
<g filter="url(#filter0_d_20_114)">
<circle cx="64.5556" cy="70.4445" r="1.55556" fill="white"/>
<circle cx="80.8889" cy="70.4445" r="1.55556" fill="white"/>
<path d="M97.6111 37H91.7778L89.1515 47.1111M60.6667 66.9444H84L85.5152 61.1111M85.5152 61.1111H61.8333L56 47.1111H89.1515M85.5152 61.1111L89.1515 47.1111" stroke="white"/>
</g>
<defs>
<filter id="filter0_d_20_114" x="51.25" y="36.5" width="50.3611" height="43.5" filterUnits="userSpaceOnUse" color-interpolation-filters="sRGB">
<feFlood flood-opacity="0" result="BackgroundImageFix"/>
<feColorMatrix in="SourceAlpha" type="matrix" values="0 0 0 0 0 0 0 0 0 0 0 0 0 0 0 0 0 0 127 0" result="hardAlpha"/>
<feOffset dy="4"/>
<feGaussianBlur stdDeviation="2"/>
<feComposite in2="hardAlpha" operator="out"/>
<feColorMatrix type="matrix" values="0 0 0 0 0 0 0 0 0 0 0 0 0 0 0 0 0 0 0.25 0"/>
<feBlend mode="normal" in2="BackgroundImageFix" result="effect1_dropShadow_20_114"/>
<feBlend mode="normal" in="SourceGraphic" in2="effect1_dropShadow_20_114" result="shape"/>
</filter>
</defs>
</svg>
